<?xml version="1.0" encoding="utf-8"?>
<!-- (c) ammap.com | SVG map of World - Low -->
<svg xmlns="http://www.w3.org/2000/svg" xmlns:amcharts="http://amcharts.com/ammap" xmlns:xlink="http://www.w3.org/1999/xlink" version="1.1">
    <defs>
       
        <amcharts:ammap projection="mercator" leftLongitude="-169.6" topLatitude="83.68" rightLongitude="190.25" bottomLatitude="-55.55"></amcharts:ammap>
 
    </defs>
    <g>
<path id="1"  d="M21.719-0.652
	L17.695,2.01l-2.842,3.906L10.71,8.105c0,0-3.197,5.447-3.197,4.736c0.5-0.5-2.717,4.262-2.717,4.262l-1.781,3.073v5.095
	l-0.947,3.67v2.604l-1.732,3.239l-0.496,0.932l-2.27,1.274l-2.131,1.42v3.078l2.842,1.537l2.366,2.486l3.077,2.84h4.5h2.486
	l1.539,2.783l-1.893,3.492L9.41,57.82v3.555l1.893,2.131l3.551,2.367l1.912,1.637l2.984,2.916l2.209,3.262l1.656,2.129l2.709,4.105
	l3.684,1.104l5.209-0.234h0.945v-6.395l2.131-3.789l1.791-2.844l2.471-3.549l2.383-1.121l1.643-0.771l0.947-3.049l2.67-3.236
	l0.873-4.664l-1.648-1.836l-1.895-1.42H36.873l-2.367-0.711l-0.947-1.896l-2.369-2.484l-2.129-2.842l-0.238-3.195l0.473-4.734
	l2.133-4.973l3.078-4.264l2.367-4.676c0,0,5.918-5.979,5.445-6.688c-0.475-0.711-0.475-4.5-0.475-4.5l-0.947-1.242L37.82,3.131
	l-1.678,1.761L34.5,5.912h-5.678H25.98l-0.475-1.361l-0.709-2.545l-1.543-2.662h-1.535v0.004H21.719z"/>
<path id="2"  d="M-60.671-20.068
	v3.166l0.65,3.266l1.904,3.168l4.075,4.715c0,0,0.558,2.529,0.912,3.148c0.354,0.621,1.929,1.361,1.929,2.369
	c0,1.006,0,6.154,0,6.154l0.946,4.084l1.894,3.553l2.842,3.078l2.605,1.715l3.086,2.256c0,0,3.305,1.533,3.305,2.658
	s3.789,1.125,3.789,1.125l2.846,2.893l3.783,5.924v3.789l0.474,4.498l0.947,4.264l3.552-2.727l3.078-3.906v-2.129v-4.498l1.42-8.107
	l1.657-2.605l1.893-1.836c0,0,3.554,0.208,4.263,0.208c0.711,0,4.262,0.738,4.262,0.738l0.18-1.658c0,0,0.456-2.204-0.18-2.84
	c-0.709-0.709-4.262-3.551-4.262-3.551l-4.263-3.553l-2.869-3.583l-0.919-1.15L-16.635-8.7c0,0-1.42-0.873-1.42-2.604
	c-0.294-1.968-1.894-7.103-1.894-7.103l-2.606-0.236l-4.733,0.236h-3.551h-1.619l-2.406,1.509h-1.658h-10.18
	c0,0-1.658,1.273-2.605,0c-0.947-1.271-0.238-1.745-1.895-1.745c-1.657,0-2.841,0-2.841,0l-2.842-1.421h-3.786V-20.068
	L-60.671-20.068z"/>
<path id="3"  d="M-15.213-25.335
	l-1.42,2.189l-1.42,1.658l-1.657,1.42l0.277,3.166l0.58,2.221l1.001,4.616c0,0,0.995,1.532,1.22,1.361
	C-16.583-8.45-16.824,2.01-16.824,2.01l-0.045,2.545l3.787,4.734l3.736,3.131l3.019,2.447c0,0,2.573,1.972,2.078,2.467
	c0,0.963-0.313,3.557-0.313,3.557l-3.97-0.714l-2.185-0.13l-2.368-0.103l-1.893,1.836l-1.119,1.758l-0.593,0.949l-0.785,4.69
	l-0.58,3.314v4.498v2.129l-1.657,2.104l-1.42,1.805l-1.422,1.092l-2.13,1.633l2.13,3.787l1.658,3.789l2.471,3.156l2.501,2.791
	l1.459,1.988l1.382,1.887l3.078-1.303l1.657-2.813c0,0,0.712-2.063,0.84-2.553c0.128-0.492,0.345-1.854,0.345-1.854l1.894-1.305
	h1.896v-4.262l-0.869-3.313l2.051-0.238l2.031-0.852l-1.559-1.633l-2.839-1.541c0-1.184,0-3.078,0-3.078l2.131-1.42l2.267-1.27
	l2.23-4.176v-2.604l0.604-2.334l0.344-1.336v-5.09L5.5,15.92l2.321-3.386l2.027-2.983l0.867-1.449l4.138-2.189l0.817-1.117
	l2.029-2.789l4.023-2.664L20.066-2.61h-2.367h-4.262h-2.723H8.939L6.901-4.298l-1.75-1.457H1.362v-2.948l-1.893-1.361
	c0,0,0,0.415,0-1.243c0-1.656,0.474-5.594,0.474-5.594l1.099-3.166l0.32-1.184l-2.842-0.711l-3.079-1.42h0.002h-3.077l-3.551-1.953
	h-1.895H-15.213L-15.213-25.335z"/>
<path id="4"  d="M24.799-50.609
	l-2.214,1.459l-2.52,1.999l-2.913,2.805l-2.381,2.947l-1.335,1.917l-1.538,1.6l-1.187,1.243l-2.01,0.788L5.86-34.745l-1.458,1.856
	l-1.857,2.405l-1.185,1.953l0,5.096v2.185l-1.057,3.312l-0.359,1.063l-0.36,3.447l-0.117,3.364L1.36-8.702v2.948h3.789l3.787,3.148
	l3.055,0.037c0,0-0.213-0.037,1.443-0.037c1.658,0,6.629,0,6.629,0l1.655,1.953h1.539L24.8,2.011l1.18,3.901l2.843,0.005h3.08
	c0,0,0.471,0,2.129,0c1.658,0,3.789-2.783,3.789-2.783V2.01v-2.662v-1.953l2.131-1.363l2.367-1.787l3.076-1.053l0.947-3.256
	l1.814-8.582v-1.421l1.264-1.184l1.648,1.184l2.85,1.894l2.605-0.473l1.893-1.421l3.078-2.278l2.604,1.332l3.316,0.946l2.604,1.125
	h2.607l3.332-1.125v-2.278l0.631-2.278l-1.123-0.71l-0.297-3.374l-0.652-0.712v-2.904l-1.479-2.422h-1.834l-2.654-2l-2.791-1.02
	l-2.881-2.664v-3.196l-0.373-0.888l-1.547-6.097L59.6-55.818h-4.023l-2.592-3.255l-1.914-1.953l-2.912-1.896l-1.105-1.508
	l-1.895,1.746l-1.186,3.609v2.072l-2.129,1.656l-1.654,1.955l-3.316,1.599H34.27c0,0-1.656,1.183-2.842,1.42
	c-1.184,0.235-4.26,0.473-4.26,0.473L24.799-50.609z"/>
<path id="5"  d="M-9.767-56.765
	l-3.315,1.896l-2.603,3.077h-1.186h-6.865l-0.947,3.787l-3.078,2.131l-3.551,2.369l-1.146,2.816l0.909,2.924l2.841,1.125
	l1.895,1.895h2.131l3.57,2.131l3.297,1.896l2.365,2.188l0.237,3.195h4.026l3.551,1.953h3.077l3.077,1.42l2.844,0.711l-0.003-4.084
	v-3.196l1.185-1.954l3.314-4.261l4.853-1.894l2.723-2.843l2.593-3.464l2.354-2.66c0,0,3.33-3.109,4.875-4.056
	C24.8-50.61,24.8-50.61,24.8-50.61l1.658-2.782l1.184-3.375v-1.42l-1.895-2.841l-2.49-0.946h-5.322l-2.131,0.946l-5.092,1.953
	L7.28-57.477L5.86-56.53l-6.393,0.71l-1.875-1.184l-1.834-0.475L-9.767-56.765z"/>
	</g>
</svg>
