<?xml version="1.0" encoding="utf-8"?>
<!-- (c) ammap.com | SVG map of World - Low -->
<svg xmlns="http://www.w3.org/2000/svg" xmlns:amcharts="http://amcharts.com/ammap" xmlns:xlink="http://www.w3.org/1999/xlink" version="1.1">
    <defs>
       
        <amcharts:ammap projection="mercator" leftLongitude="-169.6" topLatitude="83.68" rightLongitude="190.25" bottomLatitude="-55.55"></amcharts:ammap>
 
    </defs>
    <g>
<path id="8"  d="M99.203-55.021
	l-2.367,1.598l-4.025,2.368l-3.551,1.923l-3.454,2.435l-2.685,1.893l-2.148,1.194v3.919v4.262v3.078v1.184v3.986
	c0,0,1.183,0,1.186,0.01l1.982,0.418l3.463-0.418h2.479h1.783l0.711,2.16l1.42,2.014l-0.236,5.502l2.367,5.033l1.42,2.873
	l1.656,4.229v3.789v5.789c0,0,0.947-1.053,2.131-1.764c1.186-0.709,3.787-2.367,3.787-2.367l1.186-1.895h4.025l3.49,0.236
	l2.666,2.604h2.84l2.842,1.421l3.078,1.764l2.07,2.023l-1.123,3.314l-1.186,1.479l-1.658,2.072l-0.945,1.539l-1.895,2.485
	l-1.088,2.201l-1.018,2.951l-0.262,1.242l2.129,3.042l3.078-1.328l1.184-2.959l1.656-1.364l1.834-0.943h1.244l1.064-0.77
	l5.092-1.258l3.789-0.518h1.242l2.842-2.783l1.836-3.61h4.379c0,0-0.057-2.959,1.303-1.479c1.36,1.48,5.916,0,5.916,0h3.082
	l2.055-0.641V4.215c0,0,2.584-1.963,2.809-3.758c0.229-1.795-0.84-6.057-0.84-6.057l-1.385-1.248l-1.988-1.79L159.4-9.595
	l-0.891-0.801l-1.775-1.64l-1.598-1.301l-1.715-0.896l-3.908,0.86l-4.676-0.043l-3.906-1.953l-1.953-0.313l-3.02,0.313
	c0,0-2.188,0-2.898,0c-0.709,0-2.959,0-2.959,0s-2.621-2.648-2.783-3.115c-0.162-0.465-0.176-4.04-1.598-3.866
	c-1.42,0.173-2.369-3.614-2.369-3.614l-1.064-3.434l-2.959-0.266h-2.604l-2.604,0.266l-1.732-2.596c0,0-1.404-1.203-1.465-2.198
	c-0.061-0.995-0.188-3.118-0.188-3.118l-0.168-2.741l-2.242-2.668l-3.037-2.657l-1.299-0.742l-2.656-0.916c0,0,0-0.709,0-2.101
	c0-1.391-1.893-1.924-1.893-2.872C99.439-52.953,99.203-55.021,99.203-55.021z"/>
<path id="7"  d="M99.219,4.199
	c-0.656,0-3.482,0.013-3.482,0.013c-0.467,0.056-2.199-0.013-2.199-0.013l0,0l-2.368-2.002l-2.605,0.178l-3.455,0.233l-1.205,0.591
	l-2.932,1.838h-4.01l-5.445-0.676l-2.131-0.164l-2.825,0.327l-0.725,0.513l-2.014,1.364l-2.564,0.302l-0.158,5.498v2.427v4.587
	v3.047c0,0-1.186,0.753-1.186,2.428l-0.027,5.061v4.172l1.684,3.078l0.238,2.721l0.947,4.561v3.433l2.345,3.869l1.74,2.052
	l3.254,1.774l5.728-0.994l0.663-0.131l1.186-0.236h5.602l1.264-1.42l2.131-1.657h5.207l2.324-2.071l0.281-2.428l3.314,1.243
	l1.791,0.769l1.998,0.858l2.369-0.444h1.184l1.42,0.444l1.078,0.823l2.475,0.804l1.598-2.071l1.006-1.185l1.125-2.604l1.008-2.65
	l2.148-0.499l0.93-1.466l5.443-1.422v-2.071l-0.518-4.498l0.518-5.328l-0.518-0.625l0.518-1.328l-1.92,0.828l-1.156,0.5l-1.467-2.09
	l-0.668-0.952l0.721-2.611l1.218-3.019l1.174-1.742l1.15-1.508l1.654-2.427l2.133-2.664l0.701-2.071l0.422-1.243l-2.07-2.023
	l-1.896-1.088l-1.656-0.914l-2.42-1.208l-1.367,0.025h-1.42l-1.316-1.286l-1.35-1.318l-2.131-0.126l-1.359-0.11h-2.605h-1.42
	l-1.186,1.895l-0.951,0.604l-0.721,0.455l-2.115,1.309L99.219,4.199z"/>
<path id="6"  d="M36.453,37.254
	c-0.328,0-0.228,4.025-0.228,4.025v3.848v1.599V48.5l-2.604,3.196l-2.764,1.42l-2.682,1.185l-2.84,1.123L21.75,57.42
	c-0.454,0.454-4.465,1.14-4.465,1.14l-3.314,1.835l-2.367,1.479l-3.867,1.973c-0.281,0.281-2.763,2.762-2.763,2.762l-2.331,1.184
	c0,0-1.433,1.039-1.155,1.616c0.277,0.578,1.936,3.597,1.936,3.597l2.732,4.404l1.422,2.456l1.934,2.9l1.066,2.358l0.533,3.323
	l2.623,1.599h4.498l1.656-1.599l2.131-1.479l3.314-1.895c0,0,1.75-0.225,2.449-0.314c0.699-0.089,4.91,0.078,4.91,0.078l0.926,0.586
	c0,0,2.393,0.438,2.605,0.414c0.215-0.024,3.176-0.354,3.176-0.354l2.98-1.121l5.189-2.271l5.463-2.228c0,0,1.184,0,1.895,0
	c0.709,0,4.943,0,4.943,0l2.869,0.947v2.842l-1.186,4.794l-0.635,3.09l1.344,0.402l4.264-0.475l2.842-1.42h1.42l4.498-1.598
	l1.656-1.953l2.131-1.658v-2.071l0.641-1.953l1.24-2.298l1.199-3.146v-2.841l2.367-4.735l3.074-2.84l1.422-1.658l0.236-2.9
	l-1.182-2.309l-2.131-1.446l-1.42-3.052l-1.264,0.475h-5.602l-1.186,0.236l-6.391,1.125l-3.288-1.859l-1.886-2.251l-2.167-3.585
	v-3.434l-0.676-3.262l-0.506-4.018l-1.686-3.078l-3.053-2.204l-3.724-1.97l-3.376-1.638L47.109,26.8L42.9,28.899l-0.526,0.86
	c0,0-1.382,3.506-1.633,3.254c-0.336,0.336-0.973,1.156-0.973,1.156S36.484,36.984,36.453,37.254z"/>
<path id="5"  d="M80.926-43.563
	l-6.156,1.785l-7.102,1.421l-4.971,2.841l-5.92,4.736l-4.973,3.433l-3.408,3.576l-3.086,3.644l-2.5,2.605l-2.605,2.072l-4.5,1.953
	l-4.734,2.842l-3.314,1.893L25.29-7.209l-3.551,3.077v2.368L19.844,1.55h-2.704l-4.873-0.947L9.662,4.629L8.715,11.08l2.605,3.61
	l3.693,1.444l2.462,1.515l2.367,3.312l2.842,2.371l3.076,3.521l1.658,1.451l4.26,1.509l2.844,2.042l0.137,1.739l2.125,3.185
	c0,0,0.891-0.773,1.918-1.664c1.029-0.893,1.029-0.893,1.029-0.893s1.535-1.803,1.785-2.411c0.248-0.607,0.67-1.75,1.336-2.865
	l4.217-2.092l0,0l4.293,2.168l3.336,1.541l2.979,1.755l2.15,1.667v-4.172v-3.201V24.25c0,0,0.92-2.217,1.211-1.925V12.264
	l0.212-4.672l0.024-0.842l2.697-0.315l2.605-1.863l2.748-0.313L73.081,4.6l3.818,0.497h4.01l4.005-2.441l6.193-0.398l2.367,2.002
	h5.667c0-0.399,0.015-2.002,0.015-2.002v-7.578L97.497-9.55l-2.25-4.637l-0.93-1.977c0,0-0.607-1.211-0.607-1.291
	c0.049-1.111,0.147-3.256,0.147-3.256l0.091-2.248l-1.42-2.013l-0.711-2.161h-4.262l-0.953,0.154l-2.075,0.299
	c-0.902,0-2.417-0.454-2.417-0.454H80.91c0,0,0.016-6.363,0.016-6.718s0-2.249,0-2.959C80.926-37.515,80.926-43.563,80.926-43.563z"
	/>
<path id="4"  d="M99.203-55.021
	c0,0-6.158,0.059-6.867,0c-0.711-0.061-4.973,0-4.973,0s-1.656-1.243-2.367-1.243s-4.039,0-4.039,0h-2.828h-3.785l-4.498,0.634
	l-3.078-1.818l-4.023-2.779l-2.867-2.902l-3.055-1.895l-1.656-2.604l-2.842-2.132l-2.131-1.184H46.88h-3.076h-2.131l-3.078,2.604
	l-2.605,3.314l-2.367,2.056l-3.787,4.573l-1.658,3.375c0,0-1.184,1.361-1.42,2.07c-0.238,0.711-2.842,3.789-2.842,3.789
	l-2.604,4.498l-1.42,2.84v2.132l-1.656,1.896l-1.186,1.42h-1.895c0,0-2.367,0-3.076,0c-0.711,0-2.605-0.711-3.316-0.947
	c-0.709-0.236-2.129-1.185-2.84-1.42c-0.71-0.236-3.275-0.711-3.275-0.711S0.951-39.69,0.24-39.929
	c-0.709-0.237-1.42-0.237-2.131-0.237c-0.709,0-3.076,0-3.076,0c-1.422,0-4.974,0-4.974,0s-1.421,1.42-2.131,1.657
	c-0.71,0.237-4.024,0.474-4.024,0.474l-2.367,1.658l-1.42,1.42l-1.657,1.064v8.643l1.185,2.84v3.078l0.946,3.551l1.657,3.789
	l3.148,4.191c0,0,1.825,2.201,2.534,2.674c0.272,0.649,1.42,3.314,1.42,3.314s1.369,0,2.285,0c0.99,0,2.425,0.003,2.425,0.003
	l3.811,2.362h2.37h2.406l1.381-1.184c0,0,1.42,0,2.131,0c0.709,0,2.604,0,2.604,0l3.553,1.184l1.277,0.229l3.55,0.768l2.75-0.046
	l1.895-3.314V-4.18l3.551-3.078l2.367-3.552l4.992-2.9l3.057-1.834l4.5-1.955l2.605-2.07l2.5-2.604l1.84-2.341l4.655-4.881
	l4.973-3.434l5.92-4.735l2.217-1.267l2.754-1.574l3.551-0.711l3.553-0.709l4.211-1.135L81.822-44l2.73-1.788l3.795-2.742
	l4.469-2.528l4.025-2.368L99.203-55.021z"/>
<path id="3"  d="M-10.653-1.811
	l-1.184,1.42l-4.262,2.084c0,0-1.658,0.838-1.658,0.172c0.194-0.583,0,2.243,0,2.243l1.658,1.656v2.368v1.42v2.604l-2.131,1.657
	c0,0,0.11,1.943,0,1.895c-0.111-0.049-0.426,5.205-0.426,5.205l-0.143,2.381l-0.142,2.358l2.841,4.114l0.604,2.072l0.699,3.521
	l0.117,4.378l-1.42,2.251v2.456v3.286v2.782l1.301,2.367l2.435,1.775l1.709,1.727l0.712,2.892l1.573,2.131l3.399,2.367l1.656,1.185
	h3.314v1.657l2.645,1.185l2.33-1.185l2.842-2.841l0.944-0.375l2.844-1.52l1.297-0.825l2.657-1.547l1.728-0.944
	c0,0,0.473-0.093,2.604-0.52c2.133-0.426,5.445-2.617,5.445-2.617l2.842-1.124l2.682-1.185l2.764-1.421l2.604-3.196v-1.774v-3.789
	c0,0,0-3.315,0-4.499s0.604-1.706,0.604-1.706s-0.955-1.314-1.148-1.532c0.192-0.167-1.113-1.023-1.113-2.207
	c0-1.185,0-0.25,0-1.183c-0.369-0.369-2.842-2.044-2.842-2.044l-2.701-0.958l-1.561-0.552l-1.656-1.45l-3.078-3.521l-1.205-1.007
	l-1.635-1.364l-1.152-1.609l-1.215-1.701l-1.777-1.13l-1.814-0.8l-2.564-1.03l-0.992-1.375l-1.613-2.235l0,0L8.939,9.38l0.359-1.958
	l0.413-2.84l0.896-1.385l0.973-1.504l0.736-1.138L10.54-0.036L8.762-0.627h-1.42H6.158H4.973H4.027L2.648,0.557H0.24h-2.369
	l-2.08-1.167l-1.731-1.2h-2.427L-10.653-1.811L-10.653-1.811z"/>
<path id="2"  d="M-21.545-33.893
	l-2.84-0.734l-1.185-2.461l-1.185-2.131h-1.895c0,0-2.367,0.236-3.078,0c-0.71-0.236-4.261,0-4.261,0s-3.338,0.026-3.8-0.105
	c-0.462-0.131-5.434,0-5.434,0l-4.974-1.551l-2.367-2.604l-2.604-4.499c0,0-1.185-1.421-1.185-2.131s0-6.865,0-6.865v-3.314
	l-4.262-1.953l-1.895,1.007l-5.445,0.71l-1.184,0.947l-2.842,1.894l-3.517,1.421l-1.692,2.8l-1.904,2.882l-1.647,2.516v1.511
	l2.367,2.13l0.236,3.078l1.186,3.551v3.906c0,0,0,2.723,0,3.434s0,2.781,0.236,3.285c0,0.535-0.237,1.592-0.237,1.592l-0.947,2.463
	l-1.184,2.604l1.184,2.13l2.403,2.132h2.806l1.895,2.024l1.42,2.71l-0.237,3.553l1.42,1.895c0,0,2.132,0,2.841,0
	c0.711,0,2.842,0,2.842,0h2.131l1.913,2.442l1.401,1.818l-0.711,3.504l0.241,2.398c0,0,3.735,1.437,3.521,2.146
	c-0.211,0.71-1.683,1.185,0,1.421c1.682,0.235,2.867,1.894,2.867,1.894v2.604L-53.037,15l-0.972,2.129h1.209l1.658,1.42l3.109,2.365
	c0,0,1.064-1.959,1.361-2.506c0.299-0.547,1.851-3.121,1.851-3.121s0.864-1.207,1.296-1.813s1.592-2.439,1.592-2.439l0.971-1.48
	h1.185l1.955,1.48l2.425,1.834v1.182l1.303,0.947l1.185,1.657l1.657,0.238l2.369-1.185l1.656-0.474l1.656-1.657l1.727-0.431
	l1.115-0.278l2.131-1.836l1.657,1.125l1.873,0.754l0.968-0.754V9.554V8.133V5.766l-1.658-1.656c0,0,0,0.046,0-1.186
	c0-1.23,0-1.229,0-1.229l0,0c0,0-0.229,0.923,1.658,0c1.887-0.923,1.887-0.923,1.887-0.923l2.375-1.161l1.184-1.42l-1.42-3.315
	l-1.475-1.379l-2.291-2.832l-1.918-2.654l-1.182-2.702l-0.475-1.085l-0.946-3.551v-1.334v-1.744l-1.185-2.842
	C-21.545-26.908-21.545-33.893-21.545-33.893z"/>
<path id="1"  d="M-76.678-54.426
	l-4.055,4.553l-1.895,1.895h-1.657h-1.657h-1.656c0,0,0.475,0.947-1.185,0.947c-1.658,0-1.657,0-1.657,0l-2.605-2.368
	c0,0-0.473-1.125-1.184-1.627c-0.71-0.503-0.474,0.444-0.71-0.503c-0.235-0.946-1.42-1.657-1.42-2.367s0-0.71,0-0.71v-1.657v-1.186
	l-1.42-1.894v-2.899c0,0,0.474-0.414,0-1.125c-0.474-0.709-1.657-4.735-1.657-4.735l-2.367-2.841l-1.186-1.42l-1.42-2.131
	l-1.42-1.657h-2.368l-1.185,1.657l-1.185,1.184l-2.13,2.368l-1.656,2.841l-1.185,2.368c0,0-1.421,1.184-2.132,1.184
	c-0.709,0-3.787,1.185-3.787,1.185l-2.842,1.775l-4.498,3.67l-4.735,2.899l-4.498,2.308l-6.629,4.5l-4.972,4.734v4.498l1.894,2.367
	c0,0,1.422-0.236,2.132,0c0.711,0.236,3.551,0,3.551,0l4.025,3.078l2.13,2.131l0.71,2.012l-2.605,3.67l-0.475,3.551l-2.13,1.508
	l-4.024,2.754l-1.656,2.367l-0.711,1.314l-0.473,6.262l-0.475,6.156l-0.236,8.76l-0.236,6.344l1.42,3.836
	c0,0,1.185,4.49,1.895,3.785c0.711-0.707,2.842,2.844,2.842,2.844s2.604,1.42,3.313,1.658c0.711,0.235,3.315,0.877,4.263,1.148
	c0.946,0.271,4.024,0.212,4.734,0.241c0.71,0.028,3.078,0,3.078,0l3.076-1.392l4.263-0.945l1.657-2.188l1.894-1.365l1.658-1.18
	h4.024l2.842,1.18l4.025,3.318l2.842,2.334h3.551l2.841-3.279l2.131-2.373l3.079-2.127h2.841l2.13,2.127l1.658,1.365l-0.236,4.541
	c0,0,1.657,2.62,1.657,3.33s3.078,4.025,3.078,4.025l3.313,3.551l1.896,3.078l2.841,2.604v4.32l1.422,0.769l3.551,2.487l3.769-1.673
	l1.438-1.583v-3.286L-58,42.127l1.893-3.217v-3.787l2.105-2.132l1.367-3.586l1.263-2.805l1.78-2.955v-2.731v-1.19l-1.543-1.173
	l-1.658-1.422l-2.367,1.658l-0.698,1.293l-0.485,0.834h-1.186l-1.656,0.137l-2.886-0.137h-3.744l-1.894-3.311v-2.368v-1.94
	l2.132-2.26l0.71-1.48c0,0,0.001,0,1.184-0.473C-62.5,8.607-62.5,6.949-62.5,6.949l1.655-0.71l3.315-1.091l-0.235-3.455l0.709-3.504
	l-3.314-4.262h-2.13h-5.683l-1.42-1.895l0.236-3.552l-1.42-2.71l-1.895-2.023h-2.806l-2.403-2.133l-1.184-2.13l1.747-3.858
	c0,0,0.797-2.485,0.621-2.8c-0.286-0.286-0.237-6.718-0.237-6.718v-3.906l-1.185-3.551l-0.235-3.078l-1.071-0.965l-1.295-1.165
	v-1.511l5.242-8.197"/>
	</g>
</svg>
