<?xml version="1.0" encoding="utf-8"?>
<!-- (c) ammap.com | SVG map of World - Low -->
<svg xmlns="http://www.w3.org/2000/svg" xmlns:amcharts="http://amcharts.com/ammap" xmlns:xlink="http://www.w3.org/1999/xlink" version="1.1">
    <defs>
       
        <amcharts:ammap projection="mercator" leftLongitude="-169.6" topLatitude="83.68" rightLongitude="190.25" bottomLatitude="-55.55"></amcharts:ammap>
 
    </defs>
    <g>
<path id="1"  d="
	M41.727-46.006c0,0-1.392,2.465-1.553,2.626c0.058,0.058-1.973,3.083-1.973,3.083l-2.145,2.983l-2.381,3.417l-1.987,4.173
	L29.733-28.3l-1.416,1.293c0,0-3.589,4.559-4.2,5.17L23.21-21.29l-0.318,2.137l3.02,1.125l2.489,0.001l1.072,2.521l0.35,2.041
	l2.485,2.058c-0.133,0.316-0.846,0.991,0.245,2.082c1.305,1.065,2.601,1.901,2.601,1.901l1.244,0.84l1.772,2.542l-0.016,3.276
	l0.031,4.109l-0.046,1.828l1.177,2.784l0.989,2.384h3.557h2.131l3.02,0.89l2.133,0.83l1.983,1.126h1.748l2.665,0.887h2.664
	l0.929-1.393l1.558-1.626v-2.31l0.711-2.214l-0.209-3.318L63.089,0.92l0.314-3.19v-1.955v-1.244v-1.775l-0.094-2.091l-0.433-2.24
	l-0.361-1v-0.887v-1.422l-0.249-1.036l-0.462-1.923v-1.659v-1.244v-1.717v-1.823v-0.723l1.244-1.066l1.196-0.165
	c0.695-0.094,1.44-0.195,1.44-0.195l1.27-0.174l2.133-1.421v-2.132l0.53-3.568l-0.263-0.786l-0.624-1.864l-0.771-0.771l-2.249-1.005
	l-1.783-0.216l-1.06-0.318l-0.354-1.514l0.711-1.329l0.525-0.323c0,0,0.415-1.708,1.071-1.392c0.657,0.318,3.139-1.246,3.139-1.246
	h1.127l0.53-1.422l0.534-0.887l1.114-1.625v-0.965c0,0-1.266-0.754-1.47,0c-0.205,0.754-2.844,0.754-2.844,0.754l-2.548,0.948
	c0,0-2.672-0.574-2.605-0.559c0.066,0.014-2.37-0.508-2.37-0.508l-0.725-0.414l-2.412-0.555l-0.593-1.163l-1.668-0.583l-1.889-0.662
	l-0.789,0.866l-0.985,1.081l-1.955,2.14l-1.246,1.245l-0.982,1.379l-0.791,0.93h-1.006H43.26L41.727-46.006z"/>
<path id="2"  d="
	M23.125-54.743H18.21l-1.954-1.125h-2.664l-1.777,1.125l-1.063,1.185l-1.955,1.302H7.375L6.132-50.36l-1.6,0.887H2.58H1.159
	l-2.843,0.889h-1.599l-2.31,0.889l-1.065,0.769h-1.245l-0.709,2.309v4.738v4.441l1.066,2.31l0.888,3.731
	c0,0,1.325,2.748,1.777,3.199c0.533,0.177,2.487,1.789,2.487,1.789S-0.262-23,0.272-22.644c0.531,0.354,2.805,1.954,2.805,1.954
	h1.634l1.601,1.54h1.953h2.312l3.021,0.77h1.422c0,0,0.889,0,1.42,0c0.533,0,3.556-0.77,3.556-0.77l1.764-1.185l0.189-0.178
	l2.206-1.362l2.216-2.535l1.827-2.466l1.566-1.455l1.954-1.422l1.423-3.197l1.179-2.002l1.84-2.44l0.823-1.165l1.25-1.772
	l1.417-2.142l1.287-2.146l0.79-1.422l-0.691-0.887l-1.382-1.777l-1.421-1.201l-0.89-0.752l-3.909,0.355l-1.359,1.717l-1.657,1.657
	L28.61-45.12l-0.502,0.503l-2.486-1.065l-1.018-3.746L23.125-54.743z"/>
<path id="3"  d="
	M-8.694-44.713l-2.485,1.246l-1.481,1.716v1.954v2.577v5.062v4.264l-1.717,1.42h-1.599h-2.13l-1.245,1.968l-1.777,1.231
	l-1.066,4.027v1.301c0,0,1.245,1.955,1.776,2.133c0.534,0.178,1.776,1.776,1.776,1.776h1.601l1.598,2.31l-1.42,1.394
	c0,0-1.065,0.204-1.065,1.447c0,1.245-0.178,1.066-0.178,2.31c0,1.244,0.887,3.199,0.887,3.199h1.776c0.471,0,3.907,0,3.907,0
	l2.842,1.599v1.245l2.488,0.176l2.666-0.888l1.776-1.066l12.258,0.355l3.021-2.488l2.96-2.132l2.371-1.953l2.131-1.803l7.867-1.22
	l3.443,0.18l-2.605-2.309l-0.12-1.245l-0.656-2.142l-0.466-0.997h-2.49l-3.02-1.125l0.303-2.076l-1.37,0.932l-1.859,1.177
	c0,0-2.288,0.555-2.396,0.579c-0.312,0.312-2.67,0.099-2.67,0.099h-1.418l-3.194-0.771H6.233l-1.6-1.54H3l-1.642-1.066l-3.119-2.182
	l-3.197-2.259l-1.07-1.797c0,0-0.977-1.593-0.977-2.53c-0.16-0.673-0.619-2.603-0.619-2.603l-1.066-2.311v-1.688v-3.997v-3.49
	L-8.694-44.713L-8.694-44.713z"/>
<path id="4"  d="
	M-8.694-0.534l-1.598,2.666l-1.331,3.108l-1.039,2.931l-0.828,2.488v3.021l-1.956,1.954l-1.952,2.132l-1.422,1.599v3.555
	l-1.066,2.487l-0.71,2.383l-1.599,2.591l-1.066,1.954l-1.42,1.599l-1.6,3.021l-1.6,3.197l1.955,3.197l0.177,2.845l1.067,2.13
	l0.354,1.956v4.085l-2.132,1.598h-4.442v1.866l1.423,2.044l2.131,2.309l1.421,1.244l1.244,1.243h3.729l2.488-1.243
	c0,0,0.535-1.599,1.067-1.954c0.532-0.355,1.952-1.42,1.952-1.42l2.784,0.533l1.836,0.709l2.132,1.421l1.243,0.711l1.955,2.132
	l2.487,1.776l1.244,1.599l2.842,1.245l2.842,2.132h3.021l0.89-2.844l-1.066-2.665l-0.354-2.132l-2.133-3.021l-1.601-0.887
	l-1.064-0.533V57.83l1.064-0.979v-1.954l-1.954-2.842L0.367,49.39l2.31-1.776l2.369-0.355l1.364-1.065l0.177-3.198l1.245-2.664
	l3.553-3.377l2.132-3.198l2.96-1.954l1.304-2.309l3.198-1.703l4.975-0.784l1.775-2.665l1.954-3.021l2.606-3.73l0.946-2.665
	l2.666-1.243l2.664-2.487l1.599-1.243l-0.957-2.417l-1.054-2.379V1.951v-3.197v-2.843l-1.896-2.666l-1.963-1.354l-2.007-1.489
	l-0.396-0.915l0.405-0.945l-3.501-0.094l-3.301,0.537l-2.561,0.331l-1.954,0.352l-1.357,1.179l-1.344,1.125l-1.803,1.452
	l-2.24,1.608L12.633-3.71l-2.211,1.758L9.437-2L6.425-2.047L4.634-2.141L0.41-2.277l-2.172-0.035l-1.775,1.066l-2.666,0.888
	l-2.489-0.179v0.003H-8.694z"/>
<path id="5"  d="
	M-23.321-19.248v2.073l-1.184,1.183h-2.842l-2.131-1.628h-4.976l-3.789-1.628h-1.896h-1.186l-1.42,3.256h-1.421h-5.209l-2.132,1.658
	v0.946l1.421,3.052l2.132,1.448l1.184,2.311l-0.236,2.901l-1.42,1.657l-2.132,3.08l-1.896,2.607c0,0,0.709,1.493,0,2.641
	c-0.711,1.148,0,4.464,0,4.464l3.08,3.081l2.604,3.553l1.422,1.659h4.026l1.184,4.027l0.71,4.87l1.381,3.3v3.199
	c0,0,2.171,2.487,2.882,2.665c0.711,0.179,4.264,1.599,4.264,1.599l3.021,1.423l1.599-3.197l1.601-3.021l1.42-1.601l1.61-2.836
	l1.054-1.709l0.71-2.383l1.066-2.482l-0.001-3.558l1.422-1.599l2.576-2.755l1.333-1.333v-3.019l0.829-2.488l1.649-4.323L-9.8,1.312
	l1.108-1.847v-1.244l-2.843-1.6l-1.125,0.001l-2.783-0.001h-1.776c0,0-0.25-0.877-0.641-1.757s-0.129-2.784-0.129-2.784l0.061-0.965
	c0,0,0.084-1.334,1.065-1.447c0.55-0.512,1.42-1.394,1.42-1.394l-0.726-1.052l-0.873-1.258h-1.601c0,0-1.648-2.061-1.776-1.778
	s-1.776-2.131-1.776-2.131L-23.321-19.248z"/>
	</g>
</svg>
