<?xml version="1.0" encoding="utf-8"?>
<!-- (c) ammap.com | SVG map of World - Low -->
<svg xmlns="http://www.w3.org/2000/svg" xmlns:amcharts="http://amcharts.com/ammap" xmlns:xlink="http://www.w3.org/1999/xlink" version="1.1">
 <defs>
       
        <amcharts:ammap projection="mercator" leftLongitude="-169.6" topLatitude="83.68" rightLongitude="190.25" bottomLatitude="-55.55"></amcharts:ammap>
 
    </defs>
    <g>
<path id="1" d="M54.605-23.241l-0.794-2.364
	l-1.574-2.132l-0.945-3.848l-2.605-1.361l-2.605-2.367v-7.25v-2.456l1.422-1.42v-5.919l-1.422-4.883l-2.84-4.114l0.711-11.838
	l-2.369-2.783l-2.129,1.835l-2.844,0.71l-1.656,1.657L33.3-71.298l-2.369,1.185l-1.656-0.236l-1.184-1.656l-1.303-0.947v-1.186
	l-4.381-3.314l-3.314,3.313l-2.367,3.314l-2.573,4.732l1.861,1.362h2.604l1.633,1.716l3.104,0.711l3.432,2.132v2.93l-1.064,1.095
	c0,0-0.709,3.077-1.42,3.315c-0.711,0.236-0.711,2.604-0.711,2.604v3.642l0.947,1.096l2.25,0.947l1.775,1.981h2.367h1.42v3.285
	l1.186,0.771l1.42,3.905l1.656,3.021l-1.893,2.188h-2.369l-3.078,0.946c0,0-2.84,0-4.498,0c-1.656,0-2.128-0.236-3.314-0.946
	c-1.184-0.71-3.551,0-3.551,0l-2.842-3.787l-2.84-1.896l-0.711-2.367c0,0-0.948-1.657-2.604-1.835c-1.657-0.176,0-2.188,0-2.188
	v-1.098l1.42-2.456h3.076c0,0,1.897-0.71,2.844-0.71c0.946,0,2.842,0,2.842,0v-1.654l-1.422-1.187l-0.945-3.313v-3.789l-0.947-3.552
	l-1.186-2.841l-1.184-2.664l0.018-0.033l-0.017,0.031l-2.605,4.321l-2.131,4.736L7.49-51.648l-1.42,3.551l-2.367,4.025v3.315
	c0,0-1.658,1.42-1.895,2.248c-0.237,0.829-2.131,2.484-2.131,2.484s-1.893,0.71-2.131,0c-0.235-0.71-0.946-1.185-1.656-1.185
	s-0.71,0-0.71,0l-1.185-1.302l0.947,5.327l0.946,4.024l-0.472,3.555l-2.369,2.366l-1.894,2.841l-4.262,1.186l0.946,1.894v3.552
	l-0.197,3.849l-0.749,4.676l-0.203,5.464l0.676,2.823v6.156v2.129l2.368,1.539h5.208l2.367-1.539l4.972,1.539l2.131,1.279
	l1.657,2.627l1.421,1.42c0,0,4.083-0.298,4.455,0.074c0.449,0.139,0.546,0.182,0.467,0.176c0.528,0.119,0.997,0.224,0.997,0.224
	l1.543-1.836l2.025-2.686l4.008-2.818h3.742h2.059l2.105,1.539l2.039,1.279l2.564-2.818l0.75-1.007l2.9-2.174l3.549-2.663
	l3.879-2.294l2.767-1.521l3.479-3.602L52-4.238v-5.357v-2.987v-2.131l2.125-1.505l-0.314-1.998L54.605-23.241z"/>
<path id="2" d="M14.595-62.063l1.186,2.841
	l0.947,3.552v3.789l0.945,3.313l1.422,1.187v1.654c0,0-1.896,0-2.842,0c-0.947,0-2.844,0.71-2.844,0.71h-3.076l-1.42,2.456v1.098
	c0,0-1.657,2.012,0,2.188c1.656,0.178,2.604,1.835,2.604,1.835l0.711,2.367l2.84,1.896l2.842,3.787c0,0,2.367-0.71,3.551,0
	c1.186,0.71,1.658,0.946,3.314,0.946c1.658,0,4.498,0,4.498,0l3.078-0.946h2.369l1.893-2.188L34.957-34.6l-1.42-3.905l-1.186-0.771
	v-3.285h-1.42h-2.367l-1.775-1.981l-2.25-0.947l-0.947-1.096v-3.642c0,0,0-2.367,0.711-2.604c0.711-0.238,1.42-3.315,1.42-3.315
	l1.064-1.095v-2.93l-3.432-2.132l-3.104-0.711l-1.633-1.716h-2.604l-1.861-1.362l-0.725,1.332l-0.018,0.033L14.595-62.063z"/>
 
<path id="3"  d="M-13.107-19.211
	l-4.499,2.369l-4.498,3.786L-24-8.319l-1.895,2.841l-1.184,4.973l-2.131,1.895h-6.393h-1.895V4.23v2.604v2.132l-1.183,3.905
	l-2.842,5.09l-2.604,6.156l-2.131,4.023l-2.131,4.735l-4.025,4.023c0,0-2.129,3.905-3.314,3.255c-1.184-0.649-5.208,0-5.208,0
	l-3.551,2.664v3.552l-2.13,2.711v3.148v3.848l2.841,2.131l3.551,1.422l1.896,1.123v3.139l-1.42,1.42l-2.131,4.263l2.842,2.131
	c0,0,1.42,0.474,2.129,0c0.711-0.475,3.078,1.131,4.736,0.211c1.657-0.92,3.551,0.291,3.551,0.291l-1.893,3.285l-1.895,3.729V80.7
	l2.367,3.313l1.42,2.021h3.553l2.367-0.13l2.841,2.132c0,0,1.94,3.409,2.179,3.885c0.237,0.473,3.741,3.101,3.741,3.101h3.313
	l1.657,1.305h2.368l6.156,1.538h1.656l0.725-9.11c0,0,1.977-4.188,2.521-3.517c0.543,0.673,2.438-2.405,2.438-2.405l3.313-1.657
	c0,0,0.475-1.599,0.947-3.078c0.472-1.479,0-3.769,0-3.769s-0.443-1.923-0.695-2.865c-0.25-0.943-0.25-0.943-0.25-0.943v-3.551
	l2.965-2.817l0.705-2.265l0.354-5.039v-4.616v-3.148l2.179-4.037l3.267-2.461l4.26-3.256l1.187-3.61v-4.025l0.946-3.313l3.568-4.145
	l3.771-4.145v-1.421l-2.818-0.686l-3.096,0.21l-1.421-1.421l-1.657-2.628l-2.131-1.278l-4.971-1.537l-2.368,1.537h-5.216
	l-2.359-1.537V3.045l-0.711-2.823l0.236-5.464l0.808-5.919l0.139-6.155L-13.107-19.211z"/>
<path id="4"  d="M54.619-23.256
	l8.271,4.046l1.934,4.024l2.33,3.552l2.604,4.497L72.6-2.874l0.947,5.92L72.6,6.833l-1.136,0.784l-1.943,1.346L65.97,11.33
	l-1.145,2.816l2.553,3.575l3.088,2.367h1.184l2.238,0.771l2.279,1.36l3.297,1.895l2.365,2.189l0.236,3.195l-1.42,2.188l-3.078,3.078
	v2.303l-2.842-0.882c0,0-4.732,0.236-5.443,0.236c-0.711,0-4.461,0-4.461,0l-2.404,1.509h-4.498h-3.314l-5.223,0.536l-1.408-0.536
	l-3.313-1.745c0,0-1.422,0-2.748-0.663c-1.324-0.665-1.516-0.758-1.516-0.758H36.61l-0.045-1.895l0.045-6.393v-6.394l-1.184-3.077
	l-3.317-4.145l2.134-2.546L38.267,7.3l3.865-2.765l5.366-2.914c0.26-0.262,1.187-1.425,1.187-1.425l2.131-2.132l1.186-2.308v-1.953
	V-9.6v-5.119l2.129-1.42l-0.319-2.251l0.793-4.851"/>
<path id="5"  d="M1.333-80.767v0.947
	l-1.656,1.421l-2.368,0.946l-0.71,1.479l-0.947,1.835v0.71l-1.185,1.657v2.369l2.367,2.13c0,0-0.711,0.703,1.064,1.18
	c1.775,0.479,2.96-0.477,3.434,0c0.474,0.479,1.657,0.14,1.657,0.14l1.657-0.14c0,0,0.475,1.181,1.184,0
	c0.711-1.18,1.186-2.127,1.186-2.127l1.158-1.655l0.973-2.131l0.773-1.16v-0.972v-1.835l1.121-1.479l-0.814-0.869l-2.051-1.025
	v-1.42l-1.171-1.092H4.649L1.333-80.767z"/>

	</g>
</svg>
