<?xml version="1.0" encoding="utf-8"?>
<!-- (c) ammap.com | SVG map of World - Low -->
<svg xmlns="http://www.w3.org/2000/svg" xmlns:amcharts="http://amcharts.com/ammap" xmlns:xlink="http://www.w3.org/1999/xlink" version="1.1">
    <defs>
        
        <amcharts:ammap projection="mercator" leftLongitude="-169.6" topLatitude="83.68" rightLongitude="190.25" bottomLatitude="-55.55"></amcharts:ammap>
 
    </defs>
    <g>
    
<path id="16"    d="M42.382-124.244l3.135,1.993L48-121.898l1.773,0.89l2.174,1.028l2.059,1.346l2.051,1.313l2.363,1.229l0.71,1.479l3.174,0.485 c0,0,2.003,0.183,2.51,0c0.509-0.182,3.197,0.081,3.197,0.081l1.893,0.145l2.19,1.302l2.069,1.657l0.944,2.25l0.452,2.972l-0.63,2.477l0.629,3.02l-1.519,1.718l-1.422,0.592l-1.539-0.945l-1.302-0.756l-2.962-0.902l-2.484-0.829l-1.42-0.354l-2.724,0.473l-2.014,2.132l-0.223,1.538l-0.195,2.349L56.4-92.588l-1.422,1.774l-2.313,2.738l-1.714,1.995l-0.474,3.907v1.302h-3.959h-1.775l-1.927-0.556l-1.392-1.105l-2.448-1.877l-2.215-1.625l-1.235-0.912l-2.322-2.09l-1.811-0.479l-1.649-0.43l-2.771-1.257l-2.109-1.388l-2.31-1.007l-1.6-1.836l-1.241-0.889v-1.242v-2.842l-0.893-2.846v-1.952l-1.42-1.236l-0.905-1.035l-1.936-1.396h-1.6l-2.841-1.865l-1.146-1.295l-0.908-0.569l1.876-0.888l1.472-0.401l3.676-1.006l2.135-0.781l4.794,0.365l2.662-0.365l1.422-0.414 l2.271-2.087l2.881-2.059l2.483-1.599l3.078-1.774l0.401-1.142L42.382-124.244z"/>
<path id="15"   d="M-6.395-108.873l1.886-2.064l2.267-0.846h2.417h3.729l4.163-0.818l0.905,0.57l1.146,1.295l2.841,1.865h1.6l1.936,1.396l0.905,1.035   l1.42,1.236v1.952l0.89,2.843v2.84v1.244l1.241,0.888l1.601,1.835l2.31,1.006l2.009,1.341l2.875,1.311l3.466,0.903l2.26,2.052   l2.409,1.778l2.316,1.688l2.621,2.098l1.938,0.555h1.774h3.966l1.188,0.709c0,0,1.019,1.753,1.515,2.416    c0.498,0.662,1.313,1.947,1.313,1.947l0.843,1.199l-1.361,2.248h-2.483l-1.773,1.421l-1.775,1.243l-2.428,1.953l-1.124,1.6  l0.18,1.063h-2.757l-2.75-0.709l-2.426-1.953l-1.308-2.483l-0.711-1.422l-1.6-0.71h-5.682l-1.775,0.89h-1.097l-2.635,0.71   l-0.709,0.89l-1.421,0.533l-1.958,0.71l-1.24,1.774l-1.245,1.772l-0.354,1.244v1.598l-0.354,3.021l-0.179,9.231h-1.241l-2.663-2.664 L8.884-54.24l-1.598-1.42L5.687-57.26l-2.134-2.311l-3.194-2.131l-3.344-2.31l-1.098-0.71l-1.242-1.422l-1.063,0.533l-3.906-0.533   l-1.598-1.599v-2.842l1.598-4.974l1.775-2.842l1.773-2.898v-2.25l0.533-4.264l0.178-3.551l0.71-1.243v-3.729l0.71-4.82l-0.71-2.104  l-2.129-3.188l-1.42-0.895l0.71-1.537h1.773v0.004H-6.395z"/>
<path id="14"   d="M-34.922-101.147l1.42-1.243l0.736-0.856l1.395-1.628l1.252-1.563l1.421-2.434l2.006-2.957l1.774-1.66h1.656h2.309l2.96,0.888    c0,0,0.931,0.399,1.915,0.821c0.984,0.422,3.058,1.574,3.058,1.574l2.188,1.334l1.954,1.538l1.421,0.893l2.129,3.188l0.71,2.104 l-0.277,1.902l-0.434,2.924v3.723l-0.71,1.249l-0.08,1.629l-0.202,2.774l-0.429,3.41v2.25l-1.358,2.224l-2.19,3.518l-1.598,4.973    v2.842l1.599,1.594l3.902,0.536l1.063-0.532l1.242,1.421l2.98,2.013l1.459,1.006l2.214,1.478l0.98,0.653l1.362,1.478l2.368,2.434    l2.22,2.041l1.952,1.953l1.688,1.688h1.242l0.126,2.424l-1.623,2.585l-0.972,0.377l-0.602,0.232H8.994L7.39-45.015l-3.493-2.47  l-2.182-2.371L0.702-49.97l-3.641-2.909l-2.574-2.598l-4.764-4.084c0,0-5.31,0.036-5.933,0.264 c-0.623,0.226-1.021,0.447-1.021,0.447l-1.951,0.886v-1.421l0.178-5.684l-2.131-2.662l-2.131-1.42l-3.651-0.483l-3.861-0.769    l-2.607-1.589l0.475-6.207l-2.013-3.086l-2.546-2.96l-2.841-2.663v-3.021l2.841-3.67c0,0,0.92-1.263,1.535-2.215    c0.438-1.013,0.854-4.375,0.854-4.375L-34.922-101.147z"/>
<path id="13"  d="  M17.756-68.623l3.375-1.244l0.716-0.887l2.635-0.71h1.097l1.767-0.892h2.309h3.373l1.6,0.71l1.077,2.124l0.938,1.782    c0,0,0.438,0.354,1.433,1.153c0.994,0.8,1.007,0.801,1.007,0.801l2.737,0.707h2.754l0.947,1.243l1.184,1.953l1.065,0.888v1.063  l2.723,2.134h3.671c0,0,1.422-1.776,2.131-1.776c0.712,0,2.841-0.531,2.841-0.531l1.424-1.064l1.293-0.974l2.722,2.239l2.158,1.543  l3.05,3.095l2.31,3.868l0.014,1.418v3.195l-1.063,1.537l-7.065-0.257l-4.729-0.012l-2.583,0.334l-2.563,0.82l-3.491,0.711   l-4.142,1.063l-7.779,1.159l-2.242,0.106c0,0-11.547,0.682-12.547-0.819c-1.279-1.381-1.563-1.688-1.563-1.688l-2.504-2.127 l-2.014-1.062l-1.359-0.715l-2.066-2.25l0.178-9.229l0.354-3.021v-1.598l0.353-1.247L17.756-68.623z"/>
<path id="12"   d="M62.857-63.119l4.086-2.485l2.841-2.13l3.195-0.889c0,0,2.146,0.889,2.582,0.889c0.438,0,0.971,2.841,0.971,2.841l1.064,2.843    l2.663,1.063h4.971l2.841-2.309l3.021-1.511l3.373-1.152l3.554-0.709l4.265-0.181l2.661,0.71l1.954,2.132c0,0,1.773,1.064,1.6,1.6   c-0.179,0.532,1.063,3.194,1.063,3.194v3.374v3.02l1.953,2.842l1.954,2.841l0.889,2.664l0.889,3.196v3.729l-1.42,1.774  c0,0-0.354,0.71-1.601,0.89c-1.243,0.179-3.729,0.89-3.729,0.89h-3.018l-0.18,1.42l0.354,3.196c0,0,2.842,0.354,2.842,1.42  c0,1.063,0.891,3.729,0.891,3.729v1.6l-0.891,2.843v1.773l-3.019,1.065h-3.021h-4.264h-3.374l-5.741,1.063l-1.715-2.486 l-1.242-3.729l-1.243-0.71l-1.24-1.063h-1.601H78.66l-2.308,0.89l-3.021,0.71l-1.24,0.889l-2.311,0.712l-11.188,0.178l-4.083-3.553  l-1.602-3.02l-1.599-4.617l-0.829-3.729l3.494-1.42l5.854-0.71l3.906-1.242l3.021-2.485l3.019-2.13l2.31-3.375v-4.617l-2.31-3.867   l-3.05-3.096L64.567-59.9l-2.722-2.239L62.857-63.119z"/>
<path id="11"   d="M-61.263-115.314l3.551,1.822l2.132,0.888l2.367,2.249l3.832,1.775c0,0,1.042,2.407,1.969,2.137c0.93-0.271,2.367,2.303,2.367,2.303  l3.315,1.324l3.607,1.667l3.042,0.956l-0.425,2.621c0,0-0.307,1.424-0.429,1.754c-0.121,0.33-1.537,2.213-1.537,2.213l-1.647,2.13   l-1.191,1.54v3.021l1.832,1.715l1.009,0.946l2.546,2.961l2.012,3.087l-0.273,3.603l-0.198,2.604l2.603,1.591l3.592,0.732l3.93,0.521 l2.131,1.42l2.131,2.662l-0.104,3.381l-0.072,3.723l-1.773,2.132l-2.486,1.241h-2.426h-3.435l-18.646,0.892l-3.551-1.953    l-3.729-1.154l-3.374-3.996l-2.664-1.952l-3.018-0.179v-6.213l-1.954-1.602h-1.065h-8.346v-2.843v-5.386l1.776-2.308l2.13-3.142 l2.484-2.131l1.421-3.018l0.354-6.216l1.599-3.905l1.953-3.115l2.31-2.566l0.354-5.506v-4.426L-61.263-115.314L-61.263-115.314z"/>
<path id="10"   d="M-66.413-61.167l-3.195,1.063l-1.6,2.31v2.31v5.505l-1.063,7.726l-1.065,0.978l1.779,1.646l1.683,1.551l1.865,1.598l1.598,1.774  l2.31,1.599l2.484,1.422l1.667,1.592l0.944,1.092l0.407,2.112l-2.309,1.6l-1.599,2.663l-2.132,2.31l-2.485,3.195l1.154,1.243    l3.817-1.063l1.421-0.89l4.795-0.532l8.609,0.532l10.566-0.177l2.13-1.601l3.021-1.953h3.729l0.528-0.181l-1.74-2.604l-1.455-3.969  l0.893-11.182l0.71-3.906l2.131-3.373v-4.617v-3.194l-7.295,0.229l-5.493,0.26l-4.412,0.212l-3.932,0.188l-3.552-1.953l-3.719-1.158 l-1.123-1.313l-2.251-2.684l-2.664-1.952l-3.018-0.179L-66.413-61.167z"/>
<path id="9"  d="M-107.252-44.476h6.216l1.775,2.222h1.775h4.263h6.036h4.616l4.438,0.979c0,0,1.599-0.354,2.486,0c0.887,0.354,2.309,0,2.309,0 l3.374,3.114l1.797,1.544l1.757,1.911l3.645,2.366c0,0,0.707,0.258,1.814,1.256c1.108,0.998,1.947,2.081,1.947,2.081l0.403,2.112    l-2.311,1.6c0,0-0.563,0.938-1.082,1.804c-0.516,0.86-0.687,1.045-1.2,1.605c-0.521,0.563-1.444,1.563-1.444,1.563l-2.208,2.84  l-1.075,1.554l-0.728,1.088l-3.173,3.081l-1.519,1.559l-1.243,1.243l-1.063,1.421h-1.243l-1.064-1.244h-2.309L-82.928-8.6   l-4.084,0.18l-1.953-0.531l-0.178-3.553l-0.71-2.31l-2.841-1.063c0,0-1.776-1.6-1.954-2.31c-0.18-0.711-0.355-1.42-0.89-2.842   c-0.531-1.42-0.888-3.729-0.888-3.729l-2.131-1.245l-1.6-1.241h-1.239l-0.71,1.241c0,0-0.179-0.532-0.71,0  c-0.533,0.531-2.311,1.063-2.311,1.063l-4.973-1.063h-2.486l-1.773-1.6l-0.889-1.774v-3.729l1.952-3.729l0.71-2.539l1.065-1.899 l1.954-1.773L-107.252-44.476z"/>
<path id="8"  d="M-65.967-15.888l3.817-1.063l1.421-0.89l2.131-0.235l2.664-0.297l-0.712,2.483L-57-11.272l1.066,1.775l1.953,1.952l1.063,1.599 l1.065,1.776l1.773,2.309l1.242,2.664V3.11l-0.784,2.569l0.784,2.228l-0.222,1.768l1.731,4.979l0.801,3.195l1.064,2.486v2.842v1.598 l-1.865,2.131h-0.976h-2.486h-2.663h-4.085h-4.971l-3.463-4.084l-0.799-3.551l-3.197-1.953h-3.373c0,0-2.131-1.24-2.309-1.24    c-0.179,0-3.729-3.021-3.729-3.021l-1.6-3.553V4.887l1.244-2.311l1.242-3.905l0.889-1.953l0.71-4.263l1.248,0.007l1.063-1.421   l3.711-3.766l2.224-2.117l1.527-2.285L-65.967-15.888z"/>
<path id="7"  d="M-47.481-17.857h2.542l2.854-0.063l2.167-0.042l3.159-0.051l1.675-1.282l3.476-2.271h3.729l0.528-0.181l1.534,3.089l1.312,2.591    l2.131,2.664v3.195l0.89,2.483v3.729v3.552v4.528v2.041l-1.953,3.729l-1.421,2.664l-1.954,1.6l-2.486,3.904l-2.309,3.73 l-1.952,3.551l-1.759,4.069l-1.082,2.501l-1.065,1.238l-2.841-1.598l-3.906-2.484l-3.106-1.422l-0.009-0.706l1.865-2.131l0.008-1.78 l-0.008-2.658l-1.064-2.486l-0.588-2.347l-0.677-2.13l-1.267-3.698l0.222-1.768l-0.784-2.228l0.784-2.569l0.01-1.25l-0.01-1.057 l-1.242-2.664l-1.923-2.559l-1.067-1.754l-0.911-1.371l-1.953-1.952l-1.066-1.775l0.174-2.315l0.18-2.302l0.711-2.479l2.684,0.157   L-47.481-17.857z"/>
<path id="6"  d="M-26.813-54.598h3.373l2.497-1.239l0.803-0.979l0.962-1.155l0.822-0.362l1.132-0.524c0,0,0.74-0.528,1.785-0.56    c1.044-0.03,2.604-0.104,2.604-0.104l2.565-0.049l2.073,1.778l2.688,2.306l2.116,2.146l1.495,1.256l1.678,1.391l0.926,0.713v2.486   v1.598l1.6,2.311l1.775,2.31l1.065,1.898l1.063,1.829v2.31l-1.241,2.309l-2.665,1.423l-3.02,1.6l-2.132,1.241h-0.707l-1.066,2.664   l0.532,2.664l1.421,1.599l1.243,2.486l1.243,3.374l0.354,3.194c0,0-0.53,1.42-0.53,1.952c0,0.533-1.775,3.197-1.775,3.197   l-2.31,0.888l-4.084,2.13h-1.775h-5.504l-3.196-1.063l-0.888-1.952l-1.598-3.197l-0.89-2.662l-2.132-2.664l-1.869-3.709 l-0.972-1.975l-1.74-2.604l-1.455-3.969l0.301-3.771l0.349-4.374l0.232-3.041l0.72-3.902l2.122-3.38v-1.775V-51.4L-26.813-54.598    L-26.813-54.598z"/>
<path id="5"  d="M1.715-49.863l2.311,2.485l3.364,2.354l1.604,0.663h2.311l1.574-0.611l1.623-2.585l-0.115-2.425l2.067,2.247l3.373,1.775   l2.505,2.127c0,0,0.656,0.713,1.563,1.688c0.901,0.979,5.695,0.979,5.695,0.979h3.555l5.539-0.268l3.248-0.444l4.527-0.709  l4.146-1.065l3.491-0.711l2.482-0.81l2.664-0.347h3.021h1.599l2.953,0.114l2.141,0.078l2.082,0.076l-1.254,1.835l-2.124,1.52    l-0.844,0.531l-2.25,1.906l-0.829,0.665l-3.904,1.242l-2.578,0.312l-3.278,0.398l-1.253,0.522l-1.109,0.438l-1.132,0.458    l-2.016,2.126L48.15-32.05l-1.114,2.54l-0.531,0.773l-1.104,2.31l-1.313,2.066l-0.736,2.075l-1.156,1.184v1.896v2.029l-0.368,2.338  l-0.047,2.837L41-8.443l-0.229,1.019l-1.233,2.897L38.91-3.782l-0.976,1.15l-2.61,1.611l-1.073,0.104l-1.882,0.179l-2.891,0.938 L27.636,0.21l-0.82-0.009l-3.5,0.574l-3.611,1.563h-2.131l-1.896,0.828h-1.187l-3.302,0.391L7.63,4.264L-5.756,4.38l-2.13-0.857 l-1.657-0.709l-2.623-1.266l-2.268-0.421l-3.159-0.442l-2.734-0.729l-1.16-0.317v-4.719v-2.643l-0.89-2.483v-3.195l0.887,2.666  l1.709,3.313l0.777,1.837l3.288,1.067l4.813-0.003h2.375l4.02-2.097l2.374-0.921l1.015-1.612c0,0,0.622-1.004,0.767-1.691   c0.145-0.689,0.522-1.846,0.522-1.846l-0.354-3.194l-0.896-2.436l-1.589-3.426l-1.421-1.599l-0.532-2.664l1.066-2.664l0.794-0.034   l7.73-4.229l1.241-2.309v-2.31l-2.128-3.729c0,0-2.125-2.623-3.375-4.618c0-1.464,0-2.775,0-2.775l-0.003-1.305L1.715-49.863z"/>
<path id="4"  d="M50.48-35.418l0.835,3.807l1.609,4.625l1.584,2.935l4.087,3.548l5.146-0.083l6.039-0.097l2.309-0.706l1.303-0.9l2.96-0.696 l2.308-0.89h4.976l1.241,1.063l1.242,0.71l0.834,2.501l0.408,1.229l1.715,2.484l-3.313,2.839c0,0-1.065,1.241-0.893,1.774   c0.183,0.532,1.065,3.729,1.065,3.729l1.953,3.019l0.67,3.553v3.552v3.107l-3.332,4.705c0,0-3.136,2.311-2.366,2.84 c0.77,0.533-2.604,2.486-2.604,2.486h-6.746l-6.216,1.244l-3.556-2.664l-3.193-2.486l-2.485-1.598l-2.724-0.711l-1.538-0.893    l-3.314-1.063l-5.563,0.178l-5.148-0.709c0,0-1.063,0-1.953,0c-0.888,0-2.663-1.332-2.663-1.332l-1.952-3.641v-1.42L32.377-0.74 l2.947-0.281l2.614-1.611l1.602-1.896l1.239-2.898l0.529-2.454l0.472-2.122l0.033-2.765l0.387-2.546v-3.787l1.156-1.184l0.729-2.075 l1.313-2.066l1.063-2.249l0.572-0.834l1.114-2.54l0.324-1.24L50.48-35.418z"/>
<path id="3"  d="M32.375-0.736l0.828,1.36v1.42l1.953,3.641c0,0,1.632,1.104,2.361,1.291c0.813,0.041,2.167,0.041,2.167,0.041l5.146,0.668  c0.904-0.027,2.938-0.05,2.938-0.05l2.717-0.083l3.313,1.059l1.538,0.893l2.724,0.711l2.485,1.598c0,0,3.97,3.066,4.504,3.469   c0.539,0.405,2.245,1.687,2.245,1.687l2.63-0.525l3.586-0.723c0,0,1.951,0.004,2.488,0.004c0.53,0,4.258-0.004,4.258-0.004  l0.886-0.545v2.855l-1.417,1.064l-1.6,1.771l-1.242,1.775l-1.602,1.772c0,0-0.889,2.132-0.889,2.483    c0,0.355-0.532,1.955-0.532,1.955l-1.063,2.307c0,0-0.18,1.604,0.179,1.955c0.354,0.355,2.31,2.484,2.31,2.484h2.662h1.422  c0,0,0.878,0.354,1.771,0c0.894-0.355-1.948-0.355,0.894-0.355c2.84,0,2.84,0,2.84,0l1.603,0.518c0,0-1.065-1.045,0-1.045   c1.063,0,1.063,0,1.063,0h1.022l0.752,2.307l-0.752,1.953v1.6v4.438v5.856v3.196v2.84c0,0-0.846,2.132-1.022,2.843  c-0.178,0.712-1.771,3.021-1.771,3.021l-2.898,3.021l-4.021,6.036l-4.796,4.438l-2.809,2.664l-2.165,2.131l-1.953,2.842 l-2.131,3.195l-1.244,1.598l-1.421,3.023l-0.711,2.131l-1.146,1.42h-2.052l-1.6-1.6l-3.552-1.602c0,0-0.237-0.566-0.416-1.101   c-0.178-0.53-0.861-4.218-0.861-4.218l0.027-4.265l-1.044-3.322l-0.489-3.962l-1.657-4.972l-2.14-3.777l-3.007-2.438l0,0h-2.131 l-1.665,1.052l-1.63,1.033l-2.035,1.29l-1.603,0.887h-3.018l-2.734-2.33l-0.942-1.486l-1.291-2.039l-1.065-1.773l-3.196-1.244   l-6.567-0.178l-4.402-3.924l-0.395-2.107l0.002-2.137l1.35-3.117l0.251-0.67l0.532-4.383l-1.518-1.75l-3.542-1.879l-1.868-0.636 l-1.952-2.483l-1.244-3.021v-3.018l1.601-3.197v-1.953l0.532-4.971l1.064-2.312l2.485-2.312l1.064-2.131l1.598-2.84l1.243-2.486 l1.243-2.219l1.836-2.519l1.895-0.827h2.133l3.604-1.559l3.5-0.575h2.663L32.375-0.736z"/>
<path id="2"  d="M-21.486-0.363l3.905,1.047l2.156,0.26l3.26,0.605l2.636,1.266l3.785,1.568h4.854l3.905-0.117h4.617l3.694-0.73    c0,0,1.466-0.168,2.319-0.268c0.853-0.098,2.036-0.098,2.036-0.098l-1.836,2.516l-1.243,2.221l-2.063,3.943l-1.17,2.164 l-0.673,1.352l-2.451,2.328l-1.101,2.29l-0.307,2.848l-0.172,2.021l-0.042,1.959l-1.601,3.288v3.018l1.244,3.021l1.94,2.488 c0,0,0.853,0.281,1.759,0.586c0.906,0.303,3.662,1.924,3.662,1.924l1.506,1.754l-0.52,4.379h-1.437l-4.973,0.949H3.006l-0.88-0.002  l-1.694,0.387l-1.435,1.4l-1.853,2.648L-3.56,63.661l-0.179,1.603l-0.89,1.771L-6.227,68.1l-1.776,0.889h-1.952h-3.019h-4.972   l-3.553,1.602l-2.841,2.482v2.484l-1.599,2.309l-0.888,1.602l-2.311,2.482l-1.42,1.953l-5.151,2.844h-9.766l-1.576-1.699    l-1.62-2.917c0,0,0.532-1.242,0-1.773c-0.532-0.533-2.663-3.906-2.663-3.906l-1.773-1.953l-1.954-3.553l-1.953-1.771v-6.039 l1.066-3.021l1.241-5.146l2.132-3.373l2.484-3.021l2.311-2.664l2.308-1.771l1.954-1.775l1.243-1.598l1.952-1.244l1.063-2.662    l1.775-2.131v-1.602l1.082-1.246l2.841-6.57l1.936-3.545l1.507-2.437c0,0,1.893-3.007,2.047-3.245  c0.151-0.242,1.257-1.96,1.257-1.96l1.936-1.592l1.42-2.662l1.954-3.729V2.41L-21.486-0.363z"/>
<path id="1"  d="M12.612,47.269l-1.428-0.005l-2.978,0.571L6.21,48.217H3.726h-1.6l-1.694,0.387l-1.435,1.4l-1.844,2.648l-0.114,1.777l-0.192,2.859 l-0.188,3.022l-0.398,4.95l-0.89,1.771l-1.686,1.109l-1.682,0.849h-2.841h-3.018h-4.084l-3.559,1.599l-1.427,1.257l-1.406,1.229 v2.484l-1.607,2.306l-0.877,1.602l-2.382,2.564l-0.739,1.035l-0.607,0.836l-2.492,1.377l-2.655,1.466h-3.553c0,0-2.132,0-2.664,0    c-0.531,0-2.841,0-2.841,0h-0.711l-1.591-1.698l0.347,0.637l-0.35,1.951v3.729l1.593,2.313l2.486,1.6l1.598,1.953   c0,0,1.421,1.242,2.131,1.771c0.71,0.531,2.131,3.021,2.131,3.021l2.311,3.018l1.773,1.604l3.198,0.889l2.663,1.775l1.064,1.949 l1.774,2.484l0.532,2.664l0.888,3.021l1.421,3.373l1.6,1.953h2.576l0.088-3.729v-6.746l1.063-4.975l2.662-2.313l2.131-2.307 l1.775-1.422l1.421-1.775l1.598-2.664l1.42-2.309l1.776-1.242l1.421-1.953l2.485-1.244l2.483,1.602v4.084l1.244,1.773l0.891,2.844   l1.598,2.311l4.262,0.711l2.663,1.598l3.375,0.891l3.552,1.42l3.554,1.244l3.372,1.42h4.854v-3.193l-0.945-1.955l-1.241-3.729   v-2.664l2.188-2.131l1.539-3.02l1.421-2.311v-1.773l-1.421-1.063l-1.539,0.176l-2.365,0.891l-3.554,0.889l-1.419,1.064l-5.858-0.533 l-1.6-1.063l-0.532-1.773l-0.531-3.02l0.531-2.133l1.421-1.242l1.601-0.178l1.951-0.18c0,0,1.954,0,2.484,0 c0.533,0,2.132-0.178,2.132-0.178h2.663l9.231-0.713l3.374-0.354l2.663,1.064l1.599,1.6c0,0,0.709,0.65,1.065,1.566 c0.354,0.918,2.13,2.689,2.13,2.689l1.954,1.602l1.543,0.666l-0.861-4.217l0.027-4.266l-1.029-3.207l-0.509-4.072l-1.657-4.973  l-2.135-3.781l-3.018-2.434h-2.132l-2.31,1.461l-3.02,1.914l-1.6,0.887h-3.012l-2.732-2.336l-2.235-3.521l-1.064-1.773l-3.196-1.242 l-1.067-0.027l-1.951-0.055l-1.775-0.047l-1.771-0.047l-0.813-0.73l-1.189-1.062l-0.836-0.746l-0.814-0.726l-0.75-0.668 l-0.395-2.107v-2.129l0.889-1.891L12.612,47.269z"/>
    
</g>
</svg>
