<?xml version="1.0" encoding="utf-8"?>
<!-- (c) ammap.com | SVG map of World - Low -->
<svg xmlns="http://www.w3.org/2000/svg" xmlns:amcharts="http://amcharts.com/ammap" xmlns:xlink="http://www.w3.org/1999/xlink" version="1.1">
   <defs>
       
        <amcharts:ammap projection="mercator" leftLongitude="-169.6" topLatitude="83.68" rightLongitude="190.25" bottomLatitude="-55.55"></amcharts:ammap>
 
    </defs>
    <g> 
<path id="1"  d="M400.77,254.971
	h-5.326l-1.953,0.738l-2.664,2.664l-2.131,1.42l-3.196,1.065l-3.729,0.888l-3.729-2.484l-3.729-3.553l-2.843-2.842l-2.841-1.598
	l-3.197-1.602l-2.841-1.243l-2.483-1.063l-1.421-2.309l-1.422-1.601l-1.598-1.42l-1.244-1.954h-2.484h-1.6l-2.841,1.954
	l-4.258,3.558l-3.729,3.375l-0.878,1.072l-0.724,1.591l0.004,4.084l-0.711,3.374l-0.004,2.655v2.486l-0.887,3.903l-1.243,1.953
	v1.601v2.132v2.308l-1.065,3.551v2.312h3.021l1.24-1.066c0,0,0.532,1.602,1.066,1.066c0.532-0.533,0.887,0.107,0.887,0.107
	l0.89,3.441l-0.354,1.42v2.664l-0.711,2.131l0.178,3.195h4.085h3.553l3.374-1.242h5.147h4.084h4.262h2.663h3.907l3.552-0.889
	l2.31-1.775l3.019-2.131l1.065-8.346l0.889-5.149l3.373-4.262l1.776-1.065l8.168-0.354l2.841-1.244l2.485-3.195l2.484-1.063v-2.841
	l-1.09-0.341L400.77,254.971z"/>
<path id="3"  d="M366.854,178.293
	l-2.133,2.131l-1.421,2.312c0,0-1.95,1.598-1.509,2.13c0.443,0.532-0.064,3.194-0.064,3.194l-1.268,2.134v2.13l-0.71,3.552
	l-1.063,2.664l-1.421,3.551l-1.422,2.843v4.085v3.167l1.155,1.911l0.788,2.144l1.079,4.32l-0.178,3.193l0.103,1.341l-0.379,2.748
	l-0.789,2.485l-0.532,2.841l-0.006,3.292l-0.486,2.725l-0.93,2.85l1.598,1.42l1.422,1.601l1.421,2.309c0,0,5.469,2.39,6.038,2.676
	c0.567,0.284,2.485,1.243,2.485,1.243l2.841,1.598l2.104,2.104l2.93,2.825c0,0,0.87,0.915,2.604,2.178s2.661,1.76,2.661,1.76
	l1.265-0.285l2.467-0.588l1.813-0.603c0,0,1.476-0.312,2.806-1.409s0.71-0.477,0.71-0.477l0.888-0.889l1.776-1.775l1.948-0.75
	c0,0,1.779,0.013,2.489,0.013c0.712,0,2.842,0,2.842,0l0.894-2.104l-1.376-2.675l-1.646-2.862l-1.244-1.92l-2.166-2.663
	l-1.563-2.842l-1.952-1.773v-6.038l0.784-2.222l0.989-3.729l0.535-2.216l2.131-3.374l1.303-1.581l2.313-2.74l1.896-1.913
	l3.546-2.999l2.438-2.357l1.554-2.472l2.045-2.805l-1.034-2.184l-3.508-2.098l-3.447-1.971l-2.313-1.26l-2.305-0.306h-3.374h-3.553
	h-4.796l-1.42-0.838l-1.953-2.305l-1.096-2.258l-0.502-2.235c0,0-0.574-0.353-1.222-0.746c-0.646-0.396-1.978-1.207-1.978-1.207
	s-1.242,0-2.308,0c-1.066,0-1.065,0-1.065,0l-2.309-1.243l-1.689-1.31l-1.258-1.052l-1.491-2.235L366.854,178.293z"/>
<path id="4"  d="M326.902,207.769
	v3.019v3.021l-1.243,1.24v2.844l-1.243,1.979l-1.243,1.927l-1.42,1.065l-2.309,1.42l-1.601,1.598l-2.309,1.953l-1.421,2.131
	l-0.887,3.021l-1.065,2.664v2.309l-1.599,2.13l-1.242,2.132l-1.066,1.774l-1.42,1.776l-2.131,1.421h-1.42h-0.887l0.888,3.551
	l1.773,1.775l1.954,1.24l1.953,1.217l0.89,0.737l0.888,2.485l0.532,2.309v3.729v3.284l0.179,2.753l0.887,3.374l2.311,3.192
	l2.664,1.243l2.308-0.888l2.309-1.775l2.486-1.243l2.486-1.421l1.598-0.888l2.309-0.178l2.664,0.178l0.532,0.888l1.065-1.063v-1.601
	l1.243-1.95l0.14-0.622l0.47-2.064l0.277-1.22v-2.486v-2.663l0.711-3.374v-2.309v-1.775l0.72-1.591l0.878-1.072l2.125-1.924
	l1.604-1.451l2.131-1.772l1.605-1.339l1.504-1.111l1.86-1.279h2.486h1.598l1.244,1.954l0.973-2.997l0.458-2.683l-0.013-3.199
	l0.532-2.841l0.813-2.549l0.348-2.786l-0.094-1.235l0.179-3.193l-1.079-4.321l-0.869-2.366l-1.071-1.688c0,0,0-1.394,0-2.278
	c0-0.889,0-2.842,0-2.842v-2.134l0.675-1.35l0.745-1.491l1.163-2.909l1.324-3.306l0.71-3.552l-2.486-1.242l-2.13-1.063h-2.31h-2.309
	h-2.132h-3.018l-2.31,1.063l-2.665,1.42l-2.31,3.374l-2.13,3.907l-0.888,2.308l-1.775,2.132l-0.532,1.242l-2.042,0.891l-1.153,0.529
	l-2.486,0.354L326.902,207.769z"/>
<path id="5"  d="M334.005,143.489
	l-0.532,2.737l-2.042,2.944v3.02l-1.511,2.131l-1.42,1.953l-1.421,2.663l-1.567,1.617l-1.427,1.512l-0.995,1.992l-0.628,1.627
	l-2.13,1.952l-1.063,1.953l-1.724,1.703l-1.045,1.332l-0.963,0.722l-1.775,1.305l-1.701,0.492l-1.494,0.484l-1.065,2.664
	l-1.355-0.002l2.734,4.332l1.285,2.064l2.571,2.352l2.401,0.845h2.133l3.416,0.069l2.088,0.009l1.063,3.649v3.373l-0.849,3.729
	c0,0-0.039-0.533-0.039,0.177c0,0.712-0.27,3.233-0.27,3.233s-0.084-0.217-0.084,1.026c0,1.241,0,2.663,0,2.663l1.242,1.063
	l1.066,0.891l0.881-0.525l1.643-0.244l0.843-0.11l3.195-1.42l0.532-1.242l1.813-2.23l2.146-4.582l0.841-1.543l1.834-2.681
	l0.477-0.693c0,0,0.544-0.29,1.604-0.854c1.062-0.563,2.005-1.002,2.005-1.002l1.359-0.619l4.266-0.01h3.195l2.308,0.01l2.773,1.374
	l1.847,0.924v-2.129l1.268-2.134l0.229-1.791c0,0,0.114-0.626-0.164-1.402c-0.191-0.3-0.191-0.3,0.164-0.745
	c0.356-0.446,1.337-1.38,1.337-1.38l1.431-2.312l0.888-0.891l1.243-1.242v-2.604l0.887-1.836l0.89-1.647l0.354-0.66l0.923-2.898
	l0.32-1.007l1.095-3.195v-1.066l0.503-1.953l-1.063-1.244l-3.734,0.098c0,0-2.656,0.144-3.188,0.167
	c-0.53,0.022-2.135,0.092-2.135,0.092l-1.953-0.533l-0.142-2.834l-0.232-1.352l-1.607-2.083l-1.751-0.657l-1.151-1.147l-0.803-1.159
	l-0.887-2.844l-0.491-1.703l-0.397-2.025l-1.063-0.622l-1.768-1.166l-0.896-0.699h-1.243h-1.064l-0.354,1.243h-1.422l-0.887,1.065
	c0,0-1.095-0.234-1.604-0.345c-0.508-0.106-2.061-0.44-2.716-0.58c-0.654-0.142-2.607-0.142-2.607-0.142h-0.531l-1.383-1.242
	L334.005,143.489z"/>
<path id="6"  d="M340.663,124.49
	v-5.505v-4.438l1.51-2.485l0.889-2.664v-5.859v-2.309l-2.396-2.486v-0.71l-1.877-1.82l-1.232-1.198l-1.24-1.064h-1.421l-1.422,1.954
	l-1.063,0.71l-1.348,1.908l-0.785,1.111l-0.38,1.566l-0.252,1.031l-2.032,1.31l-2.31,0.71l-1.42,1.064l-1.064,0.782l-1.421,1.349
	v3.018l-7.459,0.355l-1.6,1.422v3.018v3.02l1.065,1.954l0.889,1.42l0.854,1.231l1.098,1.61v1.953l-1.017,2.264l-1.105,1.041
	l-0.915,0.814l-1.753,1.561l-1.954,1.954l-0.352,2.839l-0.817,1.27l-0.783,1.218l-1.459,0.642c0,0-1.413,0.5-2.803,0.602
	c-2.016-0.023-0.888,1.064-0.888,1.064v2.664l0.867,1.813l0.49,1.025l2.727,3.378l0.354,2.486l-1.421,1.42l-2.042,0.063
	l-3.333,0.107l-2.793,0.09l-2.13,0.806h-1.422l-1.776,2.309l-2.455,1.208l2.355,3.386l1.932,2.917l0.204,0.957l1.54,3.802
	l2.216,4.915l1.8,1.752l0.271,1.358l0.054,0.271l2.562-0.147l1.95-0.89l2.665,0.89l1.135-0.004l1.355,0.002l1.065-2.664l3.295-1.068
	l2.56-1.84l1.122-1.426l1.72-1.701l1.065-1.953l2.13-1.952l0.479-1.243l1.146-2.378l1.021-1.095l1.974-2.032l1.421-2.663l1.42-1.953
	l0.881-1.243l0.629-0.89l0.001-3.017l1.354-1.953l0.688-0.99l0.531-2.741l0.75-1.771l-1.281-2.131v-2.664v-2.484l1.621-1.678
	l0.808-2.323l0.233-0.847l1.711-2.487l0.822-0.747L340.663,124.49z"/>
<path id="7"  d="M336.313,93.948
	v-2.485l1.598-1.479l0.887-1.007v-2.311l0.711-2.213c0,0-0.888-11.992,0-11.992c0.891,0,2.486-0.888,2.486-0.888h2.485h2.842
	l1.953,1.953l1.953,1.598l1.951,2.664l2.963,2.863l3.254,2.998c0,0,3.02,1.243,2.396,1.775c-0.621,0.531,1.864,2.25,1.864,2.25
	l3.019,2.309l1.311,1.053l3.842,3.799l1.243,3.374l9.953,0.444l1.411,1.154v3.372v2.843l-1.563,1.487c0,0-1.635,0.645-2.222,0.839
	c-0.585,0.194-2.787,1.047-2.787,1.047l-1.065,2.752l-0.177,3.106l-0.354,2.486l0.666,5.419l-0.487,3.548l-1.065,0.978h-2.31
	l-3.2-0.157l-1.713-0.377l-2.013-0.443h-5.771h-4.883h-4.973h-1.065l-1.775-2.22h-2.664h-4.351v-1.954v-5.503v-2.486l1.511-2.484
	l0.353-1.066l0.531-1.494v-8.271l-2.396-2.486v-0.71l-3.105-3.019L336.313,93.948z"/>
<path id="8"  d="M348.328,28.129
	l1.619-2.34l2.268-3.277l1.916-2.366l2.008-1.25c0,0,2.819-0.532,3.453,0c0.631,0.532,2.2,1.717,2.2,1.717l1.688,2.783l1.71,2.682
	l1.583,2.918l1.383,3.516l3.368,1.6l2.136,1.393v4.972l-0.918,1.725l-1.85,2.017l-1.316,1.056v3.018l1.717,2.336l2.013-0.027
	l3.85,0.027l1.67-1.455l2.088-0.427l3.524,0.888l1.883,2.237l1.135,1.789l-0.309,9.212l-2.354,3.284l-1.953,3.116l-0.942,2.309
	l-0.746,3.201l-0.174,3.04l-0.695,2.863l-0.814,1.728l-2.484,2.131l-1.6,2.354l-2.309,1.198l-1.421,3.375l0.172,3.368l-0.829-0.883
	l-3.101-3.002l-3.69-2.858l-1.971-1.595c0,0-0.824-0.741-0.436-1.067c0.388-0.639-2.396-1.774-2.396-1.774l-2.045-1.83l-4.09-3.949
	l-2.041-2.753l-1.949-1.591l-1.953-1.953l-5.331-0.007l-1.735,0.752l-0.75,0.144c0,0,0.355-1.244,0-1.774
	c-0.354-0.533,0-2.868,0-2.868l-0.888-2.459v-2.311l-0.71-2.957v-7.163l1.243-1.064l3.905-0.533l2.132-1.421v-2.13l0.532-3.566
	l-0.889-2.646L343.06,39.8h-2.31l-1.774-0.533l-0.354-1.514l0.711-1.328l3.729-2.307l2.132-0.651l1.063-2.308L348.328,28.129z"/>
<path id="9"  d="M316.425,88.591
	l-2.99,2.041l-1.271,1.187l-2.664,2.13l-0.947,1.775l-1.518,2.175l-2.234,3.332l-1.47,2.237l-1.111,1.666l-4.972,0.783l-3.196,1.703
	l-1.303,2.309l-2.959,1.953l-0.947,1.42l-1.184,1.776l-2.542,2.415l-1.313,1.609l-1.057,4.125l-0.059,1.084l-3.73,1.42l-2.309,1.774
	l0.354,2.664l1.953,2.84v1.953l-1.063,1.955l1.063,1.952l2.979,2.841l1.106,3.196l0.566,4.261l-2.284,2.487v1.42l2.428,1.953
	c0,0,0.235-0.414,0.946,0c0.71,0.416,2.604,2.308,2.604,2.308l1.186,0.948l1.303,0.65l2.13-1.065l1.776-2.308h1.422l2.13-0.801
	l8.168-0.264l1.421-1.42l-0.354-2.486l-2.727-3.375l-1.357-2.841v-2.664c0,0-1.065-1.063,0.888-1.063s4.263-1.244,4.263-1.244
	l1.6-2.485l0.354-2.842l1.954-1.954l3.714-3.305l1.079-2.377v-1.953l-1.952-2.841l-1.954-3.374v-3.02v-3.018l1.6-1.422l5.085-0.242
	l2.374-0.113v-3.018l1.421-1.349l2.484-1.85l2.309-0.71l2.006-1.211l0.658-2.694l2.132-3.02l1.064-0.71l1.421-1.954h1.421V91.99
	h-2.663l-2.664-0.889l-3.729-1.125l-2.131-0.828l-5.146-0.89L316.425,88.591z"/>
<path id="10"  d="M256.386,142.928
	l0.378,0.201l-3.316,7.459l-2.841,2.664l-0.947,1.953l-3.078,3.908l-0.024,4.002l-1.16,4.582l-2.368,2.841l-3.638,0.029
	l-2.399,0.799l-2.485,0.354l-3.32,6.571l-0.597,2.145l-1.528,5.491l-1.184,2.843l1.656,6.194l0.947,1.083l4.393,0.096l7.445-0.096
	l3.077,2.662l1.66,2.425l2.84,3.26l1.494,0.707h5.28h7.439h4.562l3.12-2.179v-5.561v-4.111l2.88-3.626l2.161-2.659l2.339-2.66
	l4.38-4.108c0,0,0.24-1.938,0.959-1.572c0.723,0.363,5.281-0.361,5.643,0c0.356,0.363,1.801,0,1.801,0l1.439,1.572l4.318,0.24
	l2.161-1.813l-0.361-1.813l-1.8-1.752l-2.16-4.777l-1.596-3.939l-0.204-0.957l-2.642-3.989l-1.645-2.314l0.257-0.182l-1.235-0.616
	l-0.893-0.706l-1.609-1.531c0,0-1.152-1.023-1.623-1.168s-0.61,0.149-0.61,0.149l-2.406-1.932l-0.017-1.436l-0.901-1.509
	l-2.879-2.176l-2.88-1.271l-1.261-1.633l-2.521-1.813c0,0,0.662,0.726-0.658-0.726s-2.581-2.177-2.581-2.177l-2.161-1.45
	l-4.68-1.271h-1.979L256.386,142.928z"/>
<path id="11"  d="M249.917,204.542
	l-0.02,6.304v5.386l2.13,3.639l1.963,1.289l4.192,0.577l2.933-0.825l2.512-1.042l3.966-3.638h6.925l2.131,3.639v3.998l2.776,4.578
	l1.487,2.521c0,0,4.026-2.842,4.735-2.842c0.711,0,3.552-0.474,4.144-0.474s3.434,0,3.434,0l4.024,0.948l2.131,2.365l3.02,3.079
	v4.974v6.63l-0.004,1.544l2.313-0.005l2.125-1.416l1.49-1.894l2.238-3.789l1.599-2.13v-2.309l1.117-2.84l0.835-2.846l1.325-2.048
	l4.006-3.633l2.309-1.42l1.42-1.065l2.491-3.912v-2.841l1.243-1.243v-6.035l-2.311-1.954v-2.663l0.354-4.265l0.888-3.905v-1.655
	v-1.718l-1.063-3.648l-3.604-0.014l-4.031-0.065l-2.402-0.843l-2.567-2.354l-2.664-4.262l-1.359-2.132h-1.126l-2.665-0.888
	l-1.952,0.888l-2.568,0.151l0.037,0.183l-2.161,1.813l-2.691-0.125l-1.627-0.116l-1.439-1.572c0,0-0.456,0.146-1.039,0.188
	s-0.95-0.293-0.95-0.293l-2.154,0.043l-2.521,0.188c0,0-0.78-0.125-1.063-0.146c-0.667,0.625-0.677,1.592-0.677,1.592l-4.38,4.108
	l-2.13,2.445l-0.292,0.375l-1.896,2.292l-0.938,1.146l-2.125,2.688v9.672l-3.12,2.179h-17.281l-1.494-0.707L249.917,204.542z"/>
<path id="12"  d="M226.449,204.396
	l1.43-4.915l2.603-3.434l4.024,0.104l5.21-0.104h2.604l3.077,2.662l1.66,2.425l2.84,3.26v3.49v7.224v1.124l2.131,3.639l1.962,1.289
	l4.192,0.577l2.933-0.825l2.512-1.042l3.966-3.638h6.926l2.13,3.638v3.998l2.309,3.787l1.954,3.313l-1.954,1.896l-4.438,2.604
	l-2.604,3.314l-2.368,3.788l-1.953,4.617v3.903l1.006,4.735l-1.006,3.788l-2.545,1.83h-4.262h-2.366l-2.368,2.431
	c0,0-0.236,0.477-2.25,1.422c-2.014,0.946-2.013,0.946-2.013,0.946h-4.024l-4.024-1.42l-4.974-1.421l-2.84-1.958h-2.842h-3.078
	l-3.314,2.191l-3.157,2.604l-2.524,1.271l-2.604,1.097h-1.185l-1.42-3.313l-2.131-3.853v-2.54l1.42-2.132l3.315-1.896l1.657-1.42
	v-3.313l-0.947-2.961l-2.604-3.904l-2.842-4.025l-1.421-5.208v-5.444l1.421-4.975l2.368-3.76l1.894-2.632l4.025-1.896l1.579-1.654
	l1.499-3.076l0.947-2.726L226.449,204.396z"/>
<path id="2"  d="M224.802,131.769
	l-1.265,2.604v3.966l-1.551,3.373l-0.263,1.243l-2.369,4.31l-4.023,1.787l-2.131,1.362v4.616l3.078,3.905l0.972,2.487l0.449,3.254
	l-2.493,3.554l-1.798,1.942l-2.817,4.479l-0.705,1.39l-0.983,1.362l-2.095,2.897l-2.131,4.974l-0.343,6.503l2.237,4.271l3.314,4.38
	h3.521h5.947l3.553,0.71l3.543,3.258l1.429-4.913l1.657-2.187l0.947-1.248l-0.947-1.084l-1.656-6.194l1.184-2.843l2.125-7.636
	l3.32-6.571l2.485-0.354l2.485-0.828h3.552l2.368-2.841l1.184-4.678v-3.906l1.362-1.729l1.716-2.179l0.947-1.953l2.841-2.664
	l1.894-4.188l1.422-3.271l-2.664-1.42c0,0-1.244,2.31-2.485,1.066c-1.243-1.243-4.794-4.795-4.794-4.795l-1.421-2.043l-2.603-2.988
	l-3.316-0.947l-1.852-0.947l-4.777,2.605l-3.551,1.184L224.802,131.769z"/>
	</g>
</svg>
