<?xml version="1.0" encoding="utf-8"?>
<!-- (c) ammap.com | SVG map of World - Low -->
<svg xmlns="http://www.w3.org/2000/svg" xmlns:amcharts="http://amcharts.com/ammap" xmlns:xlink="http://www.w3.org/1999/xlink" version="1.1">
   <defs>
       
        <amcharts:ammap projection="mercator" leftLongitude="-169.6" topLatitude="83.68" rightLongitude="190.25" bottomLatitude="-55.55"></amcharts:ammap>
 
    </defs>
    <g> 
<path id="8" opacity="0.4" fill="#5BC3E0" stroke="#050414" stroke-width="0.05" stroke-miterlimit="10" d="M207.667,130.346
	v2.427v1.896l-1.895,2.843l-2.367,3.313l-3.551,3.313l-3.314,2.012l-2.605,2.841h-3.314l-1.184,2.486l-2.131,1.895l-2.129,2.843
	v1.124c0,0,1.895,1.007,2.604,1.479c0.618,0.613,1.658,1.657,1.658,1.657l1.481,0.341l5.503,3.447l2.012,2.131l0.97,1.246
	l0.98,2.203l3.167,1.863l1.747,2.023l2.498,2.804l0.82,0.987l0.945,0.474l-0.236,2.604c0,0-1.393,3.024-1.656,4.675s0,3.138,0,3.138
	l3.314,1.187l1.184,1.184l0.947,1.657l1.21,0.129l0.921,0.109h0.947l1.656,1.183l1.42,1.421l1.361,1.021l1.507,2.251l0.647-1.686
	l0.51-1.351l1.049-1.835l0.846-1.479l-0.427-2.418l-0.283-1.605l-0.115-2.9l-0.121-3.019l-0.318-1.595l-0.629-3.144
	c0,0,0.188-0.397,0.682-1.448c0.494-1.046,1.211-2.574,1.211-2.574l2.839-2.609l1.049-0.597l1.475-0.854l0.557-0.321l-2.842-3.875
	l-1.893-1.924l-1.658-2.367l-1.42-1.654l-1.658-1.955l-1.658-3.02c0,0-0.473-0.711-0.473-1.657c0-0.945,0-0.945,0-0.945
	s-0.947-1.187-0.947-2.727c0-1.537,0-1.537,0-1.537l-0.473-6.629v-1.657l-2.131-3.075l-0.947-2.132l-3.553-3.61L207.667,130.346
	L207.667,130.346z"/>
<path id="7" opacity="0.4" fill="#5BC3E0" stroke="#050414" stroke-width="0.05" stroke-miterlimit="10" d="M280.352,186.752
	h-5.207h-3.314l-2.605-1.72c0,0-1.184-2.308-1.42-3.255c-0.236-0.943-1.658-2.131-1.658-2.131l-0.945-1.895l-2.84-3.077
	l-3.316-2.841c0,0-2.604-2.367-3.551-2.367c-0.947,0-1.895-2.131-1.895-2.131v-3.554c0,0,0-2.363,0.947-3.192
	c0.947-0.83,1.895-3.493,1.895-3.493l-0.473-1.835l-2.367-0.947h-1.186h-1.42h-3.078l-1.185-1.421l-1.895-1.42h-1.655h-1.186h-1.184
	v3.552v2.071v2.188h-1.895c0,0-1.895,0.003-1.895,1.306c0,1.301-1.184,4.406-1.184,4.406l-1.658,2.813l-3.078,1.302l-3.076,1.776
	l-2.844,2.604l-1.893,4.024l0.945,4.735l0.236,5.919l0.711,4.022l-1.895,3.313l-1.656,4.38l0.947,2.961l3.078,3.313l2.604,5.209
	l2.842,3.556l2.604,1.892l0.711,2.841l0.709,1.657l-1.42,4.499l1.184,2.606l2.842,2.364h4.973h2.367v-4.499l3.789-0.475l4.734,0.948
	l4.025,0.71c0,0,2.842-0.476,3.551,0.235c0.711,0.713,7.34,0.235,7.34,0.235l4.971-0.946l4.264-1.186l2.604-2.13l4.262-2.369
	l-1.824-5.327l-1.018-4.378l1.42-2.132l3.314-1.896l1.658-1.421v-3.313l-2.387-5.118l-2.879-4.174L280.352,186.752z"/>
<path id="5" opacity="0.4" fill="#5BC3E0" stroke="#050414" stroke-width="0.05" stroke-miterlimit="10" d="M203.553,171.704
	l-0.547,1.965l-0.543,3.849l-0.002,7.757v1.718l0.59,3.077l-1.239,4.024v2.182l-0.773,0.897l-2.604,2.959l-0.947,2.723l0.004,3.314
	l-0.533,2.419l-1.127,1.606h-5.918l-2.813-1.41l-1.922-0.957h-5.208l-1.734,0.963l-2.528,1.407l-2.804,0.358l-3.114,0.828
	l1.656,2.604l-0.236,3.078l0.947,4.497l1.185,2.842c0,0,2.13,1.658,2.841,1.896c0.71,0.231,3.551,3.075,3.551,3.075l3.788,1.654
	l3.197,1.658l3.668,2.13l3.078,3.553l3.551,2.604l3.789,3.315c0,0,3.314-0.478,4.023,0c0.711,0.474,5.918,0,5.918,0
	s2.369,2.604,2.605,3.313c0.236,0.709,2.604,6.392,2.604,6.392l2.133,2.135l5.207,1.184l1.895-1.895l2.367-1.896l1.658-1.42
	c0,0,1.182-1.184,1.893-1.421c0.711-0.235,2.605-1.896,3.316-2.13c0.709-0.237,2.84-1.187,2.84-1.187l4.262-2.604l2.367-2.132
	l1.658-1.896v-1.421v-4.021l-0.473-4.498h-2.369h-3.078h-1.893l-1.42-1.187l-1.422-1.184l-1.186-2.606l0.34-1.075l1.082-3.424
	c-0.711-1.657-0.711-1.657-0.711-1.657l-0.473-1.892l-0.238-0.949l-1.223-0.889l-1.381-1.003l-2.01-2.514l-1.398-2.177l-1.656-3.313
	l-0.379-0.759l-1.695-1.825l-1.383-1.489l-0.947-2.961l0.269-0.732l0.23-0.607l-1.507-2.251l-1.361-1.027l-1.42-1.421l0,0
	l-1.656-1.183h-0.947l-2.131-0.238c-0.947-1.657-0.947-1.657-0.947-1.657l-1.184-1.184l-3.314-1.187c0,0-0.232-0.497,0-3.138
	c0.475-2.544,1.184-3.254,1.42-3.964c0.236-0.711,0.236-0.711,0.236-0.711l0.236-2.604l-0.945-0.468l-1.507-1.784l-1.81-2.007
	L203.553,171.704z"/>
<path id="6" opacity="0.4" fill="#5BC3E0" stroke="#050414" stroke-width="0.05" stroke-miterlimit="10" d="M185.178,157.335
	l-3.315,1.718l-1.658,1.657h-2.131h-3.787h-2.604h-8.049h-4.498l-2.841,2.604l0.583,1.186l0.365,0.738l-0.947,3.521v2.604
	l-1.787,2.084l-2.001,3.125l-3.475,3.241l-2.447,2.69l-2.335,1.298l-1.379,0.767l-1.252,0.703l-0.947,3.612l-0.342,2.333
	l-0.61,4.526l0.897,1.346l1.003,1.5c0,0,1.656-1.419,2.367-1.657c0.711-0.236,1.42-1.184,2.604-1.184s3.315-0.711,3.315-0.711
	l1.894,1.895l1.895,4.263c0,0,0.946,3.313,1.657,3.313c0.71,0,3.314,2.368,3.314,2.368l3.787,1.42h3.315l4.024,3.078l3.113-0.819
	l2.807-0.364l4.263-2.366h5.208l4.734,2.366h2.131h3.789l1.123-1.604l0.533-2.419v-3.315l0.947-2.723l2.605-2.959l0.768-0.896
	v-2.182l1.244-4.025l-0.275-1.435l-0.318-1.646v-2.634v-4.469v-2.368l0.592-4.024l0.498-1.789l-1.378-0.811l-1.789-1.052
	l-1.045-2.288l-0.904-1.164l-1.09-1.156l-0.922-0.976L193,162.183l-2.08-1.369l-1.48-0.345l-1.656-1.656l-1.189-0.704
	L185.178,157.335z"/>
<path id="4" opacity="0.4" fill="#5BC3E0" stroke="#050414" stroke-width="0.05" stroke-miterlimit="10" d="M100.417,139.162
	v4.975v3.787c0,0,0.711-0.71,1.421,1.064c0.71,1.775,3.788,2.484,3.788,2.484h4.025l3.551,1.895l3.078,1.896v2.071v4.559v2.574
	c0,0-1.185-0.148-1.895,0.771c-0.71,0.917-2.131,1.153-2.131,1.153v-1.153l-1.657-0.771h-3.313h-1.896l-3.077,3.104l-1.895,0.947
	l-2.367,1.895l-2.367,0.946v3.315v1.893l2.604,3.079v3.314l-0.709,2.308l-3.314,4.084l-3.788,3.789l-3.788,2.604
	c0,0-3.314,1.896-3.552,2.842c-0.236,0.944-3.552,1.539-3.552,1.539l-2.366,2.959l-1.894,3.313c0,0,2.366,2.13,2.604,3.55
	c0.236,1.423,0.947,4.267,2.131,4.385c1.186,0.114,2.367,3.903,2.367,3.903l2.367,3.313l3.787,3.313c0,0,1.185,1.188,2.131,0.947
	c0.947-0.237,7.578,0.031,7.578,0.031l4.971-4.293l2.841-4.024l4.026-1.656l2.841-1.537h9.233l4.262-1.775l3.787-4.972l2.604-3.789
	l2.132-2.367l2.604-2.841h4.025l-1.895-2.843l0.424-3.241l0.523-3.622l0.697-2.659l0.25-0.953l4.972-2.765l2.263-2.521l3.656-3.417
	l2.15-3.299l1.637-1.909v-2.604l0.947-3.522l-0.947-1.923l-2.367-1.896c0,0-3.077-0.474-2.842-1.185
	c0.236-0.709-1.895-1.183-1.895-1.183l-2.604-0.711c0,0-4.024,0.711-4.262,0c-0.235-0.712-4.734-1.009-4.734-1.009h-3.314
	l-2.365-2.542l-2.131-3.313l-1.658-1.186v-1.304h-1.658h-2.131h-1.656h-1.895l-1.422-1.063l-1.42-0.475l-1.656-1.304h-1.658
	c0,0-1.42,0.83-2.131,0c-0.709-0.828-2.367-1.303-2.367-1.303l-2.131-4.263l-0.945-1.422l-1.895-2.129h-2.132L100.417,139.162z"/>
<path id="3" opacity="0.4" fill="#5BC3E0" stroke="#050414" stroke-width="0.05" stroke-miterlimit="10" d="M128.351,147.217
	l2.135,1.771h3.551l3.078-2.843l4.262-3.194l2.842-4.022l3.672-2.054l2.014,0.366l2.116-0.56l2.142,0.238l4.024-3.91l2.13-2.663
	c0,0,0.475-2.663,1.657-2.604c1.185,0.063,3.078,0,3.078,0h4.735l2.84,3.492l1.896,2.249l3.315,1.657l1.184-1.188l0.71-2.722
	l2.132-3.492l1.42-5.146l1.893-3.315l2.369-3.313l1.656-2.129l3.789-1.955l0.945,4.084l1.895,3.553l2.842,3.078l2.605,1.716
	c0,0,2.178,1.836,2.271,1.836c0.096,0,2.936,1.599,2.936,1.599l1.184,1.479v5.444l-1.895,2.843l-1.23,1.725l-1.137,1.588
	l-3.551,3.317l-3.314,2.014c0,0-0.943,1.028-1.297,1.414c-0.355,0.387-1.309,1.428-1.309,1.428h-3.314l-1.184,2.483l-2.131,1.896
	l-2.128,2.837l-0.001,1.128l-1.471,0.757l-1.845,0.959l-0.709,0.71l-0.947,0.943l-2.267,0.024l-3.653-0.02l-4.207,0.004
	l-4.555-0.004c0,0-2.366,0-3.077,0c-0.709,0-3.314,0-3.314,0l-1.895,1.733l-0.943,0.865l-2.371-1.891c0,0-3.055-0.466-2.841-1.187
	s-1.896-1.183-1.896-1.183l-2.604-0.711l-2.088,0.27c0,0-1.85,0.214-2.172-0.27s-2.241-0.735-2.229-0.733
	c0.011,0.001-2.506-0.273-2.506-0.273l-3.315-0.012l-2.365-2.542l-2.131-3.313l-1.658-1.176v-1.306
	C128.119,148.989,128.351,147.217,128.351,147.217z"/>
<path id="2" opacity="0.4" fill="#5BC3E0" stroke="#050414" stroke-width="0.05" stroke-miterlimit="10" d="M177.125,65.296
	l-3.787,2.604l-1.705,3.315l-3.741,3.079l-1.657,4.733v5.209v3.551l0.947,3.492l0.71,3.373l1.896,3.079v3.315l-1.896,2.308
	l-2.604,1.953v2.663l-3.314,3.906l-3.551,2.19l-1.184,2.84l-1.422,2.604l-1.421,2.604v4.498l2.843,1.125l1.894,1.241h1.584
	l1.257-1.241h7.813c0,0,0.176,0.215,1.012,1.241c0.836,1.029,2.533,3.085,2.533,3.085l1.19,1.414l3.313,1.657l1.185-1.184
	l0.71-2.726c0,0,0.383-0.628,1.258-2.063c0.875-1.432,0.875-1.434,0.875-1.434l0.686-2.484l0.734-2.661c0,0,0.715-1.25,0.99-1.734
	c0.277-0.482,1.592-2.542,1.592-2.542l1.68-2.354l1.02-1.312l0.639-0.819l3.787-1.953v-1.125v-4.023l-2.842-4.972l-2.367-3.314
	l-2.604-4.499l-1.658-2.664v-5.386c0,0-0.236-8.286,0-9.353c0.236-1.065,0-5.328,0-5.328l-1.184-3.075l-1.186-1.418
	C181.151,66.717,175.942,65.06,177.125,65.296z"/>
<path id="1" opacity="0.4" fill="#5BC3E0" stroke="#050414" stroke-width="0.05" stroke-miterlimit="10" d="M177.125,65.296
	l-1.893-1.657h-1.54l-2.059-1.184h-3.742l-2.604,1.408l-2.842,2.854l-2.131,4.498l-2.132,2.131l-2.604,3.195l-2.366,4.381
	l-1.185,1.894v6.244l-1.895,2.22l-3.551,2.429l-2.131,0.944l-2.129,2.842l-1.185,1.42v6.395v2.663v3.906l-1.42,4.558l-2.604,1.657
	v3.551l0.711,2.663l0.709,3.435l-0.473,1.479l-0.947,3.078l-2.367,2.841l-2.842,1.896c0,0-0.473-1.64-1.656,0.127
	c-1.186,1.769-1.186,1.768-1.186,1.768l-0.947,4.023l0.236,4.263l2.131,1.774h3.551l3.082-2.846l2.6-1.947l1.657-1.244l1.857-2.631
	l0.99-1.395l3.672-2.054l2.014,0.366l2.033-0.569l2.219,0.245l3.078-2.987l0.947-0.922l2.13-2.662l0.4-1.362h-1.584l-1.894-1.24
	l-2.843-1.125v-4.5l1.421-2.604l1.422-2.604l0.65-1.547l0.534-1.294l2.007-1.238l1.55-0.953l3.308-3.904v-2.663l2.604-1.953
	l1.896-2.308v-3.315l-1.065-1.729l-0.83-1.349l-0.419-2.062l-0.893-3.532l-0.34-1.274l-0.006-8.758l0.871-2.485l0.786-2.25
	l1.896-1.56l1.847-1.52l0.932-1.812l0.773-1.504L177.125,65.296z"/>
	</g>
</svg>
