<?xml version="1.0" encoding="utf-8"?>
<!-- (c) ammap.com | SVG map of World - Low -->
<svg xmlns="http://www.w3.org/2000/svg" xmlns:amcharts="http://amcharts.com/ammap" xmlns:xlink="http://www.w3.org/1999/xlink" version="1.1">
 
    <g> 
<path id="1" opacity="0.3" fill="#B0D028" stroke="#231815" stroke-width="0.05" d="M126.928-3.726h2.841l3.314,2.843
	l3.313,2.25l4.499,2.25h4.263l3.904,2.364v5.445v5.684v6.627v6.156v6.928l-1.773,4.438l-3.906,5.445v3.787l3.67,4.026l7.341,4.971
	c0,0,3.314,0.236,4.262,0c0.946-0.235,6.867,0.104,6.867,0.104h2.13v3.21l-1.184,2.604l-2.841,3.315l-1.422,4.564v7.982
	l-1.656,3.789l-3.553,4.676l-0.236,2.9l1.064,1.303l-2.612,3.078l-1.011-0.413l-0.883-5.791l-1.572-1.44l-2.048,0.917l-3.332,2.473
	l-3.3,3.1l-6.677,5.994l-2.717-2.726l-3.552-2.782l-0.236-2.427V88.71l1.896-3.313v-3.553l-1.658-1.656l-2.841-1.42h-2.132
	l-2.131-2.486l0.946-3.432l2.079-3.696l1.238-4.117V58.29l-2.366-2.959l-6.812-3.561l-3.607-1.885l3.198-2.944l1.66-0.711
	l2.604-0.235l2.367-1.417l2.842-1.661l4.022-2.633l0.476-2.103l-0.237-6.65l-0.474-7.32l-1.186-4.973l-0.945-4.024l-0.712-4.023
	l-1.184-1.303l-0.474-3.433L126.928-3.726z"/>
<path id="2" opacity="0.3" fill="#B0D028" stroke="#231815" stroke-width="0.05" d="M114.497,49.885l10.419,5.446l2.366,2.959
	v6.747l-1.186,4.023l-2.131,3.789l-0.946,3.432l2.131,2.486h2.132l2.841,1.42l1.658,1.656v3.553l-1.896,3.313v5.209l0.236,2.427
	l3.552,2.782l2.717,2.726l-1.83,1.832l-2.227,2.396l-4.413,5.757l-2.775,2.328l-1.063,2.841v0.461l-6.568,0.041l-2.84-3.67v-1.421
	l1.812-5.521l1.265-2.529l-0.71-2.367l-2.856,0.171l-3.05,1.264l-2.143-1.435l-0.179-0.028l-1.952-0.209l-2.502,2.579l-2.683,2.94
	l-0.972,1.112l-3.161,0.33l-2.325,0.243l-3.546,0.627l-3.141,1.485l-2.02,0.956l-2.559-1.561l-2.837,0.021l-2.015-2.843
	l-2.841-2.308l-1.599-3.374v-3.375l0.874-2.248l1.39-2.226l4.188-4.051l1.718-3.019l2.309-2.842l1.421-3.079l0.476-2.365
	l1.124-2.488l1.241-1.063l8.285-0.947l2.37-1.42l-0.476-3.078l0.234-2.604l2.131-2.367c0,0,1.748-0.255,1.775-0.118
	c0.027,0.137,1.394,2.723,1.394,2.723l2.753,2.843l1.895-0.476l1.657-4.263l1.657-4.971V58.29l0.944-3.669L114.497,49.885z"/>
<path id="3" opacity="0.3" fill="#B0D028" stroke="#231815" stroke-width="0.05" d="M157.825,93.937l2.368-0.489v4.85v7.403
	l-2.843,3.729v4.261l1.233,2.029l0.188,0.309l1.422-0.563l2.94-0.261l2.927-0.694l2.184-0.11l1.303,1.064v1.657l-0.829,2.25
	l-1.303,1.896l-1.42,1.774l-0.475,1.775l-1.101,1.728l-0.969,1.825l-0.771,2.841l0.117,2.604l-0.354,1.775l0.488,0.803l0.314,0.517
	l-2.226,1.289l-1.541,2.014l-1.654,1.539l-2.014,0.589h-5.684h-2.604h-2.132l-1.54-1.625l-1.302-0.624l-1.896,0.624l-1.655,0.56
	l-1.065,2.724l-0.474,4.854v4.025l0.71,3.313l0.354,4.024l1.065,2.308l-1.304,3.729l-1.773,1.657l-2.485,1.538l-2.841,1.658
	l-2.013,1.479l-2.486,1.246h-7.931l-0.946-1.246v-3.609l1.185-1.774l-0.118-2.25l0.354-2.427c0,0-0.236-1.008,0.235-1.008
	c0.474,0,2.842,0,2.842,0h3.434l2.959-1.184l1.774-3.435l0.236-5.563l-1.657-5.444l-2.484-2.604l-2.604-1.185l-2.484-1.39
	l-1.064-0.741l-0.236-2.012l1.657-3.078l1.063-1.775l0.946-1.42l0.354-4.379l-0.117-5.92v-4.38l1.063-2.841l1.938-1.627l0.837-0.701
	l1.492-2.103l2.688-3.396l1.687-1.882l1.36-1.362l1.242-1.243l1.791-1.607l1.953-1.752l1.777-1.546l4.457-4.188l3.332-2.473
	l2.048-0.917l1.572,1.44l0.45,2.95l0.248,1.632l0.186,1.209l1.011,0.413L157.825,93.937z"/>
<path id="4" opacity="0.3" fill="#B0D028" stroke="#231815" stroke-width="0.05" d="M160.193,93.448v0.354v6.882v5.017
	l-2.843,3.729v2.309v1.952l1.421,2.338l1.422-0.563l2.843-0.236l2.841-0.709l2.367-0.119l1.303,1.064v1.657l-0.829,2.25
	l-1.303,1.896l-1.42,1.774l-0.475,1.775l-1.063,1.656l-1.007,1.896l-0.771,2.841l0.117,2.604l-0.354,1.775l1.008,1.657l1.599,1.656
	l1.773,0.709h2.725h3.077h2.13h1.303l1.303,1.421l2.485,1.895l1.539,1.776l1.42,1.896l1.421,2.604l2.13,3.075l1.421,1.776
	l0.947,2.132l0.475,1.185v0.592l3.671,0.592h3.195c0,0,1.063,0.946,1.775,0.946s4.263,0,4.263,0s1.42,0.945,2.014,0.945
	c0.591,0,3.077,1.303,3.077,1.303l2.842,2.013l2.367,1.896l1.537,1.421l0.829-1.186l1.186-3.256l0.71-3.492v-2.012v-4.617
	l1.773-1.539l2.842-2.604l2.367-3.078l-1.063-3.315l-1.065-2.012l-0.829-1.539l0.476-3.67l2.485-2.604l2.013-2.486l1.894-3.196
	l2.368-3.433l1.302-3.553l0.593-1.301l-2.014-3.078l-3.669-0.592l-2.488-1.066l0.475-2.013l2.604-7.338l1.187-3.418l0.828-3.33
	l0.354-2.723l-1.064-2.131l-1.774-1.064h-1.895l-2.959,1.42l-3.077,2.724l-3.077,4.024l-2.014,2.604l-2.959,3.787l-2.133,3.196
	l-2.723,3.315l-0.477,2.841l-1.183,2.367l-0.592,1.42l-0.475,0.947h-3.67l-3.552-0.119l-2.842-0.236l-1.303-0.828l-1.896-2.369
	l-1.42-1.42l-1.772-1.773l-3.316-1.303l-2.13-1.54l-2.131-1.538l-1.775-0.594l-1.895,0.83c0,0-2.249,0.236-2.13,0.592
	c0.116,0.354-2.25-0.234-2.25-0.234l-2.367-2.013l-0.237-1.185l1.065-3.908l1.539-1.76l2.131-2.383l1.421-1.775l0.828-1.185
	l0.944-0.946l0.119-12.904c0,0-0.828-2.367-1.303-2.367c-0.473,0-2.841-1.065-2.841-1.065h-1.774l-0.354,2.131v2.485
	c0,0,0.473,0.354,0.592,0.592c0.118,0.237,0,3.314,0,3.314l-0.119,1.302l-0.709,2.604l-1.065,2.014l-1.064,1.654l-4.143-0.59
	L160.193,93.448z"/>
<path id="5" opacity="0.3" fill="#B0D028" stroke="#231815" stroke-width="0.05" d="M163.149,136.896l1.926,1.981l1.747,0.735
	l4.834,0.013l2.422,0.016l1.979-0.028l1.303,1.421l0.937,0.717l1.548,1.178l2.717,3.354l1.098,1.887l0.565,1.036l1.072,1.53
	l2.479,3.321l1.422,3.316v0.592l-0.717,0.179l-2.477,0.793l-2.849,1.575l-2.128,2.367l-2.087,2.142l-0.716,0.973l-0.391,0.615
	l-0.24,0.933l-0.114,5.815l0.476,2.131l-0.002,3.497l-0.353,2.066v1.125l-2.432,2.511l-1.854,1.75l-1.278,0.773l-1.152-0.431
	l-0.627-2.055l0.117-2.012l-0.123-1.362l-0.755-0.175l-0.779-0.24l-1.42,1.243l-2.013,2.9l-2.725,2.722l-1.288,1.288l-0.873,0.861
	l-2.208,1.825l-0.962,0.88l-0.714-0.055l-3.194-1.657c0,0-1.421-0.946-1.657-1.303s-2.959-1.539-2.959-1.539l-3.552-1.775
	l-2.13-0.829L139,183.836l-3.79,0.106l0.374-1.433l0.458-1.753l0.827-0.709l0.276-5.141l-0.16-2.317l-0.826-1.897l-0.805-2.068
	l1.154-0.714l1.773-1.657l1.304-3.729l-1.065-2.308l-0.35-4.137l-0.714-3.201l-0.036-4.096l0.266-1.953l0.245-2.83l1.065-2.724
	l1.894-0.634l0.969-0.359l0.688-0.19l1.302,0.624l1.512,1.598l2.575,0.027h7.873l2.014-0.589l1.654-1.539l1.541-2.014
	L163.149,136.896z"/>
<path id="6" opacity="0.3" fill="#B0D028" stroke="#231815" stroke-width="0.05" d="M192.869,158.556h3.195l0.979,0.69
	l0.644,0.241l4.415,0.015l1.296,0.731c0,0,0.35,0.224,0.718,0.214s3.077,1.303,3.077,1.303l1.657,1.173l1.265,0.903l1.844,1.477
	l1.981,1.776l-0.357,0.593v2.842v2.131l1.063,2.842c0,0,2.367,1.656,2.367,2.013c0,0.355,2.251,1.774,2.251,1.774l1.536,2.724
	l1.067,2.959l1.303,3.194v2.131l1.184,3.554l-1.655,2.368l-2.132,2.012c0,0-2.133,0.829-2.605,1.185
	c-0.471,0.354-2.484,1.656-2.484,1.656l-2.604-1.656l-2.604-0.83l-2.251-0.945l-2.011-0.594l-2.012-0.473l-1.421-0.71l-2.487-1.302
	l-2.249-0.119l-1.065-0.83l-2.484-0.473h-2.724h-3.552l-2.485,0.71l-0.945,0.829l-2.249,1.655c0,0-1.775,1.186-1.896,1.539
	c-0.116,0.355-1.893,2.25-1.893,2.25l-1.896,2.367l-1.184,1.657l-1.42,1.302l-0.829-5.445l-0.946-2.25l-1.187-1.42l-1.536-0.826
	l-1.541-0.711l-1.421-0.592l-7.933,0.475l-1.422-0.594v-1.42l1.422-1.301c0,0,1.539-1.186,1.896-1.541
	c0.354-0.354,2.012-2.012,2.012-2.012l2.725-2.722l2.013-2.9l1.42-1.243l1.54,0.475l0.117,1.303l-0.117,2.012l0.473,1.539
	l0.154,0.516l1.152,0.431l1.184-0.71l0.927-0.849c0,0,0.224-0.191,0.58-0.547c0.354-0.354,1.963-1.988,1.963-1.988l0.91-0.939
	v-1.125l0.118-0.592l0.118-0.71c0,0,0.119-0.475,0.119-0.829c0-0.355,0-0.947,0-0.947v-2.484c0,0-0.476-1.775-0.476-2.131
	c0-0.354,0-2.842,0-2.842l0.118-3.078l0.236-0.828l0.829-1.303l2.365-2.427l1.092-1.215l1.036-1.152l1.332-0.736l1.634-0.862
	l2.496-0.803l0.581-0.145l0.883,0.143L192.869,158.556z"/>
<path id="7" opacity="0.3" fill="#B0D028" stroke="#231815" stroke-width="0.05" d="M214.525,202.237c0,0-2.604,0.83-2.959,0.83
	c-0.354,0-3.552,0.828-3.552,0.828l-1.773,1.541l-1.304,1.895l-2.131,2.131l-1.302,1.064l-1.658,0.592h-2.723
	c0,0-1.42-0.594-1.775-0.594c-0.354,0-3.787-0.828-3.787-0.828l-2.723-0.473h-0.71h-1.065c0,0,0-2.604,0-2.546
	s-0.594-4.44-0.594-4.44v-0.944v-0.83c0,0-0.59-1.064-0.945-1.775c-0.354-0.711-0.963-1.818-0.963-1.818l-0.836-1.574l1.803-1.46
	l2.485-0.71c0,0,1.664,0,2.018,0s4.258,0,4.258,0l2.484,0.473l1.065,0.83l2.249,0.119c0,0,2.612,1.425,2.97,1.543
	c0.354,0.119,0.938,0.469,0.938,0.469l1.947,0.458l2.076,0.609l2.251,0.945l2.604,0.83l2.604,1.656l-0.586,0.601L214.525,202.237z"
	/>
<path id="8" opacity="0.3" fill="#B0D028" stroke="#231815" stroke-width="0.05" d="M175.465,204.132l1.278-1.775l1.585-1.979
	l1.183-1.333l0.927-1.187l0.207-0.26l2.396-1.799l0.685-0.504l2.744,5.167v0.507l-0.016,1.172l0.277,2.067l0.333,2.469v2.546
	l-2.007,0.947l-2.131,1.54l-2.13,2.249l-1.896,2.368l-1.538,1.54l-1.537,2.13c0,0-1.896-0.476-2.25,0c-0.354,0.474-1.538,0-1.538,0
	s-2.844,1.184-3.316,1.184c-0.472,0-2.131,0-2.131,0s-1.775,1.303-1.775,1.657c0,0.354-1.182,2.25-1.182,2.25l-1.777,1.302
	c0,0,0,0.237-0.945,0.592c-0.946,0.355-1.775,1.539-1.775,1.539l-1.065,2.25c0,0,0.711,0.711-0.71,1.539
	c-1.422,0.828-0.712,0.354-1.422,0.828c-0.711,0.475-1.301,0.948-1.301,0.948h-1.187c0,0-0.473,0-0.592-0.593
	s-1.064-1.896-1.064-1.896l-1.065-1.42l-0.946-1.658v-1.183c0,0-1.184-0.475-1.184-0.829c0-0.355,0-2.25,0-2.25
	s0.237-1.302,0.473-1.656c0.237-0.354,1.186-1.422,1.186-1.422l1.305-1.42l1.536-1.895l1.422-1.775l0.477-1.54l0.354-0.592
	c0,0,1.183-0.946,0.945-1.42c-0.235-0.475-0.355-2.485,0-2.959c0.354-0.475,2.014-2.133,2.014-2.133l2.724-0.474
	c0,0,1.063,0.236,1.42,0.355c0.354,0.117,2.132,0.71,2.484,0.829c0.355,0.118,2.014,0.592,2.014,0.592s1.774,0.475,2.25,1.065
	c0.475,0.59,1.539,0.945,1.539,0.945h1.065c0,0-0.354-0.119,0.354-0.591c0.711-0.475,1.538-1.302,1.538-1.302v-1.896l0.346-1.537
	L175.465,204.132z"/>
<path id="9" opacity="0.3" fill="#B0D028" stroke="#231815" stroke-width="0.05" d="M86.512,112.036l5.197-2.458l3.51-0.61
	l5.486-0.572l1.657-1.896l2.932-3.165l1.568-1.57l2.131,0.237l2.143,1.435l3.05-1.264l2.856-0.171l0.71,2.367l-1.265,2.529
	l-1.117,3.207l-0.695,2.313v1.421l1.569,2.026l1.271,1.644l3.625-0.022l2.942-0.019l-0.021,2.984l0.063,2.141l0.075,4.714
	l-0.354,4.379l-0.946,1.42l-1.103,1.862l-1.617,2.991l0.236,2.012l1.178,0.81l2.547,1.406l2.427,1.1l2.484,2.604l1.657,5.444
	l-0.236,5.563l-1.774,3.435l-2.959,1.184l-2.6,0.03h-4.263l-3.199-0.59l-1.7-1.53l-2.715-1.235l-2.378-0.738l-2.084-0.404
	l-1.508,0.65l-1.511,0.532l-1.063,0.711h-3.198h-2.664l-2.307,1.242l-1.066,2.961l-2.309,1.539l-1.42,2.426l-1.612,0.971
	l-1.632,0.982h-0.84l-5.859,1.065l-1.952-0.888l-1.775-2.132v-3.965l-1.245-4.203l-1.063-2.664l-1.363-1.167l1.614-4.194l1.46-3.688
	l0.721-2.02l1.354-7.628l0.771-4.803l1.006-3.373l1.717-3.137l1-2.517l1.781-3.166l1.986-2.96l2.274-2.015L86.512,112.036z"/>
<path id="10" opacity="0.3" fill="#B0D028" stroke="#231815" stroke-width="0.05" d="M72.414,155.112l-1.396,2.349l-0.971,1.865
	l-1.926,1.599l-2.336,1.599l-1.955,1.006l-2.131,1.539h-2.133l-2.662,1.229l-1.049,1.198l-0.755,1.927v4.82v2.663v4.438v1.749
	l-2.042,2.309l0.195,2.347l0.159,1.917l1.688,1.775l1.808,1.3l1.241,0.299h2.9h4.438l2.634,0.498c0,0,0.977,0.39,2.069,0.39
	c1.099,0,2.223,0,2.223,0l0.771,1.271h3.077h1.776l4.971,2.132c0,0,1.953,1.064,2.841,1.598c0.89,0.533,2.249,0.888,2.249,0.888
	h1.835h1.775c0,0,1.599-2.308,2.483-2.308c0.891,0,2.311-1.006,2.311-1.006s2.663-0.295,3.195,0c0.532,0.295,3.729,0,3.729,0h1.864
	l2.753-1.304l5.146-1.407l2.135-0.783h7.457l2.841-1.895l3.729-2.663l2.485-1.599l1.421-0.71l1.657-1.064l1.128-4.321l0.827-0.709
	l0.28-5.208l-0.163-2.25l-1.63-3.965l-2.39,1.442l-2.043,1.262l-1.885,1.324l-2.352,1.179h-1.873h-6.059l-0.946-1.246v-3.609
	l1.185-1.774l-0.118-2.25l0.354-2.427l0.021-0.978h-0.373l-3.199-0.59l-1.777-1.6l-2.638-1.166l-2.483-0.771l-1.979-0.371
	l-3.019,1.183l-1.063,0.711h-5.862l-2.307,1.242l-1.066,2.961l-2.309,1.539l-1.42,2.426l-3.244,1.953h-0.84l-5.859,1.065
	l-1.952-0.888l-1.775-2.132v-3.965l-0.585-2.134l-0.489-1.652l-1.234-3.081L72.414,155.112z"/>
	</g>
</svg>
