<?xml version="1.0" encoding="utf-8"?>
<!-- (c) ammap.com | SVG map of World - Low -->
<svg xmlns="http://www.w3.org/2000/svg" xmlns:amcharts="http://amcharts.com/ammap" xmlns:xlink="http://www.w3.org/1999/xlink" version="1.1">
  
    <g> 
		<path id="1"   d="
		M29.174-43.833l5.565,0.98l2.487,2.665v8.546v4.238l3.373-0.532h5.148l1.243,0.888l-0.711,5.859l-4.438,7.104v6.036l0.828,2.663
		l3.078,1.065l4.972-0.354l4.263-0.711h4.083l2.486,3.729l2.663,7.279l0.34,0.375l-2.648,0.007l-2.664,2.31h-5.327l-0.354-1.065
		h-4.084l-2.781-0.71L43.618,8.46v5.714l3.078,3.729l2.781,1.42l2.664,1.064l3.551,1.422l2.485,1.598l0.71,1.775l-2.131,2.484
		l-5.326,3.551l-4.734,5.328l-1.302,1.063l-2.133-0.889l-3.194-0.178l-8.879-0.89l-6.037,0.71L21.6,35.478l-3.907-3.729l-1.6-2.309
		h-2.841l-5.149,3.554l-2.132,0.354l-3.194-3.373L2.716,8.903l0.71-4.2L4.849-1.37l2.769-11.782l2.906-11.088l1.422-3.729
		l1.42-6.037l3.729-4.438l3.021-1.775l6.988-2.073L29.174-43.833z"/>
	<path id="2"  d="
		M-99.86-39.631h6.395l5.148-2.309l3.196-4.083l2.569-1.835l1.941-1.48l3.513-2.107l11.509-9.672l1.416,0.3l2.664,1.42l2.131,2.13
		l2.311,1.774l1.42,1.42l2.664,1.422l1.95-0.711l2.845-1.065v-0.71l1.773-0.532l1.6-0.531l1.421-0.711v-9.231l1.063-1.243l1.6,0.89
		l2.841,2.309l1.599,1.063l1.6,0.892l1.952,0.354l1.242,0.354l1.421-2.133v-5.146v-0.891l1.42,1.244l1.065,1.063l2.131,0.71v-1.064
		v-3.193v-8.348l-1.953-4.615l-0.71-3.373l-1.953-2.664l-1.064-3.906l2.13-1.243h2.309l1.243,2.132v2.129l1.601,2.132v1.423
		l0.888,0.529v1.423l1.243,1.421l1.063,1.6v5.683l1.601,1.42l1.599,0.771h0.709l1.421,2.959v1.952l-1.243,1.421l-1.42,2.13
		l-1.421,2.131l-2.841,3.196l0.178,0.888l-0.531,5.326l2.484,2.309l2.31,2.133l1.241,1.242l1.243,0.891l1.954,1.421h3.196
		l2.483-3.73v-2.13l0.678-0.213l1.564,3.409v5.682l-7.568,11.01l-2.834,4.093l-1.01,1.494l-2.901,4.003h-6.281l-0.889-0.354
		l-2.889-5.506l-1.306-2.31l-2.73,0.002l-1.5,1.027l-7.312,7.316l-0.248,0.283l-3.25,0.778h-10.53h-6.393l-4.438-1.24l-3.195-0.18
		l-3.729-0.711l-2.841-1.421l-5.148-0.354l-2.309,0.89l-2.131,0.354l-1.422,1.065l-2.129,0.71h-0.89l-0.887-1.063l-0.888-0.532
		l-0.355-3.196l-1.064-3.196l-1.422-0.354l-4.973-1.243l-1.598-0.179l-1.243-1.241v-1.775v-1.421L-99.86-39.631z"/>
	<path id="3"  d="
		M-110.396-83.905l7.104-3.313l6.629,2.842l7.576-0.474l4.734-7.104l5.684-4.732l5.208,4.732v4.975l5.209,6.863l4.615,2.844
		l2.132,2.13v2.483l1.599,3.196l3.195,4.615l3.02,1.601l2.309,2.662l1.775,3.375l2.502,1.746l-1.114,0.357l0.033,0.677l-4.795,1.776
		l-2.664-1.422l-1.31-1.311l-2.421-1.886l-2.127-2.13l-2.668-1.42l-1.416-0.3l-2.13,1.775l-2.664,2.487l-4,3.126l-2.925,2.377
		l-3.196,1.953l-4.617,3.375l-3.196,4.083l-5.148,2.308h-6.395l-1.064-4.438l-1.064-5.327l-1.599-1.42l-1.065-2.844v-1.24h-4.617
		l-2.485,1.598l-5.74-0.178l-1.54-1.953l1.42-20.953L-110.396-83.905z"/>
	<path id="4"  d="
		M-46.174-21.578l3.25-0.778l7.559-7.601l1.5-1.027h2.73l4.194,7.813l0.889,0.354h6.214l2.664-3.553l4.439-6.567l7.278-10.479
		v-5.683l-1.599-3.374l0.532-2.898l2.133-4.734h7.102l4.084-2.311v-4.438l-1.063-2.664l1.063-3.195l3.196-2.131h4.616l2.309,1.774
		l1.776,0.354l1.599-2.131l1.775-2.484l4.438-3.907l1.421-1.064l1.774,1.243l2.31,1.42l2.843,1.243l2.484,0.889l5.149-0.355h6.567
		v1.602v1.953v1.599l-1.24,1.774l1.24,1.063l1.664,0.208l0.064,2.456l0.226,4.475l-3.13,2.841l-6.392,5.091l-3.336,1.624
		l-5.431,4.974l-3.544,4.376l-1.932,1.438l-4.065,1.27l-3.062,0.909l-3.021,1.774l-3.729,4.438l-1.42,6.038l-1.422,3.729
		l-1.42,5.147l-1.6,6.396L3.425,4.704L-3.144,1.98c0,0-2.049-0.305-3.375,0.354c-1.326,0.658-3.548,6.036-3.548,6.036l-3.551,3.02
		l-7.989,0.177l-2.311-1.953L-25.22,6.95l-0.303-3.308l-0.285-2.524L-25.7-2.04l-1.42-0.533l-0.889-0.709l-3.374-1.242l-3.729-0.709
		l-2.308-0.534l-3.196-0.71L-42.7-8.922l-1.82-2.235L-46.174-21.578z"/>
	<path id="5"  d="
		M69.127-80.351v-17.756l3.926-6.835l8.682-4.178h3.729l8.346,6.929l6.037,0.71l4.617-1.064l2.13,1.421l0.89,0.889l1.064,10.652
		l3.019,3.729l-1.065,2.841l-1.063,2.663l-1.955,4.263l1.6,2.132l-1.423,2.131l-1.42,2.662l-1.244,2.311l-3.906,6.567l-1.3,2.421
		l-1.953,4.084l-4.439,7.104l-4.439,2.842l-3.672,1.131h-7.813l-2.842-3.729l-0.71-5.857l0.888-7.638l2.841-10.479l-0.532-5.504
		l-2.841-3.195L69.127-80.351z"/>
	<path id="6"  d="
		M-73.637-23.59l1.42,2.484l1.774,3.375l2.131,3.019l2.132,5.148v6.215v2.842l2.483,3.021v2.309l-1.241,1.421l-0.179,4.263
		l0.179,5.504l-3.729,2.486l-2.131,1.598l-4.795,2.485l-5.859-2.663l-4.972-1.953h-5.858l-9.236-0.709v3.729l1.777,3.904
		l3.729,2.132l3.73,4.439l0.354,5.857l3.197,4.795h8.168h1.598l3.373-3.195l4.263-0.18h4.439l7.279,0.711l6.568-6.214l5.506-7.104
		l1.065-7.813l3.906-3.196l4.084-0.531l3.906-0.354l1.243-2.131V8.374l-1.421-6.215l-2.842-7.968l-3.019-0.67l-3.904-4.681
		l-1.579-10.418h-12.983h-4.015l-4.331-1.25l-3.107-0.158L-73.637-23.59z"/>
	<path id="7"  d="
		M50.717-69.667l5.683-1.421l4.618-1.952l5.148-3.195l1.775-3.551l1.186-0.563l5.152,1.243l2.841,3.195l0.532,5.504l-2.841,10.479
		l-0.905,7.856l0.727,5.639l2.842,3.729h7.813l3.672-1.131v0.577v3.685l-2.483,3.197l-1.842,1.337l-2.422,1.503l-7.637,9.828
		l-1.064,3.668v6.037l1.064,3.551l2.042,4.438l1.265,4.146l-6.097,7.64l-0.178,1.42l-1.693,3.491l-5.701-5.06l-2.663-7.279
		l-2.486-3.729h-4.083l-4.263,0.711L45.925-4.32l-3.256-1.064l-0.828-2.663v-6.036l3.195-5.148l1.243-1.953l0.711-5.859
		l-1.243-0.888H40.6L37.226-27.4v-3.195v-5.506v-4.083l-2.487-2.665l-2.864-0.502l-2.701-0.479l3.544-4.376l5.571-5.118l3.196-1.479
		l6.392-5.091l3.021-2.842L50.717-69.667z"/>
	<path id="8"  d="
		M109.084-73.957l3.131,0.646l3.729-2.841l4.262-1.953l3.551-1.063h4.976c0,0,2.13-1.775,1.953-1.244
		c-0.18,0.532,3.904-2.896,3.904-2.896l-0.71,11.748l1.6,3.225v3.729l1.421,3.729l1.243,4.794v4.264l0.887,3.729v4.973v3.729
		l-1.775,3.021l-4.795,1.6l-4.082,1.063l-3.554,1.6l-2.663,2.663l-0.178,2.843l-0.711,4.084l-1.242,4.084l-1.421,5.504l-1.064,3.021
		h-3.194l-0.532-2.664l-1.958-1.959l-1.42,0.354l-1.775,1.421v2.841l-1.063,3.021l-2.485,1.952h-6.393l-3.195,3.021l-0.889,2.13
		h-2.253v-2.069l-1.084-3.113l-3.887-3.277l-6.392,0.825l-3.142,0.063l-1.265,1.357l-2.042-4.439l-1.064-3.551v-3.194v-2.843
		l1.064-3.668l2.042-2.369l5.595-7.459l4.264-2.84l2.483-3.196v-4.263L93.4-46.67l2.131-3.431l2.308-3.674l1.953-4.084l1.3-2.422
		l3.523-5.925l1.431-2.589l1.442-2.7L109.084-73.957z"/>
	<path id="9"  d="M64.554,5.997
		l2.132,1.818l1.984,1.801l1.245,1.064v14.383l-1.422,2.482l-2.662,1.955l-2.133,1.42l-1.243,3.373l-0.888,2.664v1.774v2.31
		l-1.064,1.42l-1.6,5.148v3.02l-1.064,4.438l-0.888,3.729l-1.775,4.438l-2.365,4.084l-1.486,1.831l-4.069,8l-3.975,7.038
		l-1.38,2.404l-3.375,2.31l-7.104,0.533l-4.617,0.709l-1.775,1.063l-1.922-2.584l-1.491-3.193l-1.598-4.264l-2.915-1.416
		c0,0,0.008-0.553-0.208-2.012c0.291-4.188,1.169-5.451,1.169-5.451l1.599-3.194l3.443-5.507l3.304-3.729l3.019-1.599l3.729-0.712
		l3.373-1.24l3.374-4.618l2.131-4.438l2.486-6.927l0.87-2.716l1.302-1.063l4.734-5.328l5.326-3.551l2.131-2.484l-0.71-1.775
		l-2.485-1.598l-6.403-2.583l-2.593-1.324l-3.078-3.729V8.458l3.078-1.922l2.781,0.71h4.084l0.354,1.065l5.491-0.042l2.5-2.268
		L64.554,5.997z"/>
	<path id="10"  d="
		M77.883-1.868l-1.265-4.146l1.265-1.356l3.142-0.063l6.392-0.826l3.887,3.278l0.571,1.754l0.514,1.359v3.196v3.021L90.08,7.19
		l-3.373,3.906l-3.551,4.438l-1.243,3.195v3.373l1.599,3.375c0,0,2.485,1.773,2.843,2.31c0.354,0.532,3.373,2.131,3.373,2.131
		l2.661,1.242l1.953,1.598l1.065,2.666l-1.243,1.242l-3.018,4.498l-2.664,4.734l-1.834,4.084l-1.008,3.374l-0.71,4.262l-0.532,4.796
		l-1.065,4.084l-1.598,3.904l-1.42,3.907l-2.432,4.084l-2.721,1.774l-3.905,2.31l-2.899,0.739l-1.486-3.508l-2.245-4.66
		l-2.202-3.217l-1.706-3.527l-1.908-2.865l-0.504-0.757l-1.847-2.771h-0.701l1.192-3.112l0.643-2.495l1.309-5.672v-3.02l1.6-5.148
		l1.064-1.42l0.059-4.263l1.187-3.479l0.885-2.381l2.333-1.494l2.461-1.881l1.422-2.619V10.681l1.693-3.491l0.178-1.42l1.8-2.255
		l1.3-1.628L77.883-1.868z"/>
	<path id="11"  d="
		M56.459,61.911l2.486,3.729l1.774,2.664l1.599,3.371l2.309,3.373l2.31,4.797l1.421,3.371l-2.663,2.133l-2.311,1.775l-0.977,2.484
		v8.348v5.326l-2.042,2.309l0.354,4.264l1.688,1.773l2.22,1.601h3.729h4.438l4.705,0.888h2.223v2.486l-2.223,2.309l-1.152,2.841
		l-2.132,2.664l-2.131,2.485l-1.42,1.243h-3.197l-4.084-2.841l-5.858-3.729l-4.616-3.019l-4.973-4.084l-3.729-2.312l-3.729-2.842
		l-3.729-0.354l-2.841,1.421l-3.729,0.532l-3.729-2.31v-3.02l2.664-2.131l1.421-2.664v-4.973l-4.085-2.66l-1.42-1.953l1.775-1.063
		l2.308-0.354l2.309-0.354l7.104-0.533l3.375-2.31l5.147-9.057l4.277-8.387l1.486-1.831l2.365-4.084l0.583-1.325L56.459,61.911
		L56.459,61.911z"/>
	<path  id="12"  d="M43.271,36.772
		l-3.194-0.177l-8.879-0.89l-6.037,0.71l-3.551-0.888c0,0-3.552-3.196-3.907-3.729c-0.354-0.532-1.6-2.308-1.6-2.308h-2.841
		l-5.149,3.553l-2.132,0.354l-3.194-3.373L2.726,8.954l0.71-4.201l-4.074-1.688L-3.133,2.03c0,0-1.169-0.271-3.375,0.354
		c-0.763,0.438-1.013,1.063-1.013,1.063l-1.591,2.875l-0.944,2.097l-2.308,1.938l-1.243,1.079l-7.989,0.177l-2.311-1.952
		l-1.302-2.664l-0.593-5.682l0.113-3.31l-1.42-0.532l-0.889-0.709l-3.374-1.243l-6.214-1.283l0.183,0.687h-0.001l2.661,7.281
		l1.421,6.215l-0.011,3.587l-1.232,2.271l-3.906,0.355l-4.084,0.531l-3.906,3.196l-0.462,3.391l-0.603,4.423l-3.4,4.331
		l-2.105,2.772l-6.568,6.215l-7.279-0.712h-4.441l-4.263,0.18l-3.373,3.195l0.887,5.148l1.776,3.552l1.42,4.085l2.131,1.243h5.858
		c0,0,4.085-0.712,4.973,0c0.888,0.71,2.664,1.773,3.907,1.951c1.242,0.18,6.214,0,6.214,0s3.907,0.158,4.084,0.078
		c0.178-0.08,3.374,2.938,3.374,2.938l5.327,4.795c0,0,1.063,3.552,1.063,4.263c0,0.709-0.53,3.551-0.53,3.551l-1.243,4.084
		l-2.312,4.797l-1.773,1.063c0,0,0.53,0.531,0.889,2.663c0.354,2.132,1.599,6.394,1.599,6.394l2.486,1.064l4.438-4.439l0.887-1.24
		l3.907-0.354l2.309,1.953l2.071,2.664l1.479,1.42h2.13l3.021-3.552l3.727-4.085l3.554,1.243l3.728,2.131l4.973,1.064l4.264-0.532
		l3.552-1.601l4.794-6.924c0,0,1.954-2.31,3.021-2.31c1.063,0,4.084,0.531,4.084,0.531s-0.878-3.633,0.962-7.463
		c1.84-3.83,5.042-8.701,5.042-8.701l3.142-3.565l3.181-1.76l3.729-0.713l3.373-1.24l3.374-4.618l2.375-5.138l2.344-6.656
		l0.769-2.286L43.271,36.772z M0.949,35.766l-1.599,1.6l-0.887,4.264l-3.552,3.729l-1.6,3.196l-4.084,4.081l-2.485,1.421
		l-1.065-1.241l-2.13-1.421l-1.776-1.773h-7.813l-1.775-1.422l-0.888-1.6l1.774-3.552l4.973-2.31l2.841-4.084l0.888-4.974
		l1.598-1.953h4.262l0.177,1.064h0.89l1.95,1.599l2.487-0.354l1.776-0.355l3.019-0.888l3.019,1.599V35.766z"/>
	<path  id="13"  d="M-5.089,31.682
		l-1.776,0.357l-2.487,0.353l-1.95-1.597h-0.89l-0.177-1.066h-4.262l-1.598,1.953l-0.888,4.974l-2.841,4.084l-4.973,2.31
		l-1.774,3.55l0.888,1.6l1.775,1.422h7.813l1.776,1.773l2.13,1.421l1.065,1.241l2.485-1.421l4.084-4.081l1.6-3.196l3.552-3.729
		l0.887-4.263l1.599-1.601v-3.373l-3.019-1.597L-5.089,31.682z"/>
</g>
</svg>
